%TF.GenerationSoftware,KiCad,Pcbnew,(7.0.0-40-g49f6a63a06)*%
%TF.CreationDate,2023-02-16T00:57:38+00:00*%
%TF.ProjectId,OPSX,4f505358-2e6b-4696-9361-645f70636258,rev?*%
%TF.SameCoordinates,PX6578900PY6a86820*%
%TF.FileFunction,Paste,Top*%
%TF.FilePolarity,Positive*%
%FSLAX46Y46*%
G04 Gerber Fmt 4.6, Leading zero omitted, Abs format (unit mm)*
G04 Created by KiCad (PCBNEW (7.0.0-40-g49f6a63a06)) date 2023-02-16 00:57:38*
%MOMM*%
%LPD*%
G01*
G04 APERTURE LIST*
G04 Aperture macros list*
%AMRoundRect*
0 Rectangle with rounded corners*
0 $1 Rounding radius*
0 $2 $3 $4 $5 $6 $7 $8 $9 X,Y pos of 4 corners*
0 Add a 4 corners polygon primitive as box body*
4,1,4,$2,$3,$4,$5,$6,$7,$8,$9,$2,$3,0*
0 Add four circle primitives for the rounded corners*
1,1,$1+$1,$2,$3*
1,1,$1+$1,$4,$5*
1,1,$1+$1,$6,$7*
1,1,$1+$1,$8,$9*
0 Add four rect primitives between the rounded corners*
20,1,$1+$1,$2,$3,$4,$5,0*
20,1,$1+$1,$4,$5,$6,$7,0*
20,1,$1+$1,$6,$7,$8,$9,0*
20,1,$1+$1,$8,$9,$2,$3,0*%
%AMRotRect*
0 Rectangle, with rotation*
0 The origin of the aperture is its center*
0 $1 length*
0 $2 width*
0 $3 Rotation angle, in degrees counterclockwise*
0 Add horizontal line*
21,1,$1,$2,0,0,$3*%
G04 Aperture macros list end*
%ADD10RoundRect,0.200000X0.200000X0.275000X-0.200000X0.275000X-0.200000X-0.275000X0.200000X-0.275000X0*%
%ADD11RoundRect,0.150000X0.587500X0.150000X-0.587500X0.150000X-0.587500X-0.150000X0.587500X-0.150000X0*%
%ADD12RoundRect,0.140000X0.140000X0.170000X-0.140000X0.170000X-0.140000X-0.170000X0.140000X-0.170000X0*%
%ADD13RoundRect,0.135000X0.185000X-0.135000X0.185000X0.135000X-0.185000X0.135000X-0.185000X-0.135000X0*%
%ADD14RoundRect,0.140000X-0.170000X0.140000X-0.170000X-0.140000X0.170000X-0.140000X0.170000X0.140000X0*%
%ADD15R,1.900000X0.400000*%
%ADD16RoundRect,0.250000X0.292217X-0.292217X0.292217X0.292217X-0.292217X0.292217X-0.292217X-0.292217X0*%
%ADD17RoundRect,0.050000X0.050000X-0.387500X0.050000X0.387500X-0.050000X0.387500X-0.050000X-0.387500X0*%
%ADD18RoundRect,0.050000X0.387500X-0.050000X0.387500X0.050000X-0.387500X0.050000X-0.387500X-0.050000X0*%
%ADD19R,0.450000X0.600000*%
%ADD20RoundRect,0.200000X-0.200000X-0.275000X0.200000X-0.275000X0.200000X0.275000X-0.200000X0.275000X0*%
%ADD21RoundRect,0.200000X-0.275000X0.200000X-0.275000X-0.200000X0.275000X-0.200000X0.275000X0.200000X0*%
%ADD22RoundRect,0.225000X0.225000X0.250000X-0.225000X0.250000X-0.225000X-0.250000X0.225000X-0.250000X0*%
%ADD23RoundRect,0.135000X-0.135000X-0.185000X0.135000X-0.185000X0.135000X0.185000X-0.135000X0.185000X0*%
%ADD24RoundRect,0.172500X-0.262500X-0.172500X0.262500X-0.172500X0.262500X0.172500X-0.262500X0.172500X0*%
%ADD25RoundRect,0.093750X-0.093750X-0.106250X0.093750X-0.106250X0.093750X0.106250X-0.093750X0.106250X0*%
%ADD26RoundRect,0.140000X0.170000X-0.140000X0.170000X0.140000X-0.170000X0.140000X-0.170000X-0.140000X0*%
%ADD27RotRect,2.150000X1.300000X26.000000*%
%ADD28R,2.410900X1.148900*%
%ADD29R,1.135175X2.404174*%
%ADD30R,2.355450X1.200000*%
%ADD31R,1.943250X1.953550*%
%ADD32R,1.050000X1.950000*%
%ADD33R,1.413846X1.475000*%
%ADD34R,1.371600X1.473750*%
%ADD35RoundRect,0.150000X-0.587500X-0.150000X0.587500X-0.150000X0.587500X0.150000X-0.587500X0.150000X0*%
%ADD36RoundRect,0.225000X-0.250000X0.225000X-0.250000X-0.225000X0.250000X-0.225000X0.250000X0.225000X0*%
%ADD37RoundRect,0.140000X-0.140000X-0.170000X0.140000X-0.170000X0.140000X0.170000X-0.140000X0.170000X0*%
%ADD38R,0.300000X0.650000*%
%ADD39R,1.700000X0.400000*%
G04 APERTURE END LIST*
D10*
%TO.C,R10*%
X70725000Y11550000D03*
X69075000Y11550000D03*
%TD*%
D11*
%TO.C,Q2*%
X70387500Y20850000D03*
X70387500Y22750000D03*
X68512500Y21800000D03*
%TD*%
D12*
%TO.C,C12*%
X-220000Y14800000D03*
X-1180000Y14800000D03*
%TD*%
D13*
%TO.C,R14*%
X6350000Y3540000D03*
X6350000Y4560000D03*
%TD*%
D14*
%TO.C,C9*%
X6300000Y8630000D03*
X6300000Y7670000D03*
%TD*%
D15*
%TO.C,Y1*%
X15099999Y14699999D03*
X15099999Y12299999D03*
X15099999Y13499999D03*
%TD*%
D14*
%TO.C,C8*%
X2550000Y8930000D03*
X2550000Y7970000D03*
%TD*%
%TO.C,R1*%
X350000Y16980000D03*
X350000Y16020000D03*
%TD*%
D16*
%TO.C,U2*%
X7542500Y13162500D03*
X8817500Y13162500D03*
X7542500Y14437500D03*
X8817500Y14437500D03*
D17*
X5580000Y10362500D03*
X5980000Y10362500D03*
X6380000Y10362500D03*
X6780000Y10362500D03*
X7180000Y10362500D03*
X7580000Y10362500D03*
X7980000Y10362500D03*
X8380000Y10362500D03*
X8780000Y10362500D03*
X9180000Y10362500D03*
X9580000Y10362500D03*
X9980000Y10362500D03*
X10380000Y10362500D03*
X10780000Y10362500D03*
D18*
X11617500Y11200000D03*
X11617500Y11600000D03*
X11617500Y12000000D03*
X11617500Y12400000D03*
X11617500Y12800000D03*
X11617500Y13200000D03*
X11617500Y13600000D03*
X11617500Y14000000D03*
X11617500Y14400000D03*
X11617500Y14800000D03*
X11617500Y15200000D03*
X11617500Y15600000D03*
X11617500Y16000000D03*
X11617500Y16400000D03*
D17*
X10780000Y17237500D03*
X10380000Y17237500D03*
X9980000Y17237500D03*
X9580000Y17237500D03*
X9180000Y17237500D03*
X8780000Y17237500D03*
X8380000Y17237500D03*
X7980000Y17237500D03*
X7580000Y17237500D03*
X7180000Y17237500D03*
X6780000Y17237500D03*
X6380000Y17237500D03*
X5980000Y17237500D03*
X5580000Y17237500D03*
D18*
X4742500Y16400000D03*
X4742500Y16000000D03*
X4742500Y15600000D03*
X4742500Y15200000D03*
X4742500Y14800000D03*
X4742500Y14400000D03*
X4742500Y14000000D03*
X4742500Y13600000D03*
X4742500Y13200000D03*
X4742500Y12800000D03*
X4742500Y12400000D03*
X4742500Y12000000D03*
X4742500Y11600000D03*
X4742500Y11200000D03*
%TD*%
D19*
%TO.C,D2*%
X77149999Y21999999D03*
X77149999Y24099999D03*
%TD*%
D20*
%TO.C,R11*%
X69075000Y13100000D03*
X70725000Y13100000D03*
%TD*%
D14*
%TO.C,C5*%
X5350000Y4530000D03*
X5350000Y3570000D03*
%TD*%
D19*
%TO.C,D3*%
X2849999Y19099999D03*
X2849999Y21199999D03*
%TD*%
D20*
%TO.C,R8*%
X69075000Y6950000D03*
X70725000Y6950000D03*
%TD*%
D21*
%TO.C,R16*%
X9700000Y8425000D03*
X9700000Y6775000D03*
%TD*%
D19*
%TO.C,D1*%
X70399999Y4049999D03*
X70399999Y1949999D03*
%TD*%
D14*
%TO.C,R2*%
X1350000Y16980000D03*
X1350000Y16020000D03*
%TD*%
D22*
%TO.C,C6*%
X4125000Y3750000D03*
X2575000Y3750000D03*
%TD*%
D21*
%TO.C,R18*%
X12700000Y8425000D03*
X12700000Y6775000D03*
%TD*%
D23*
%TO.C,R15*%
X5340000Y2600000D03*
X6360000Y2600000D03*
%TD*%
D24*
%TO.C,U4*%
X8200000Y4300000D03*
X8200000Y3500000D03*
D25*
X7312500Y4550000D03*
X7312500Y3900000D03*
X7312500Y3250000D03*
X9087500Y3250000D03*
X9087500Y3900000D03*
X9087500Y4550000D03*
%TD*%
D26*
%TO.C,R4*%
X13350000Y13770000D03*
X13350000Y14730000D03*
%TD*%
D22*
%TO.C,C7*%
X4125000Y6750000D03*
X2575000Y6750000D03*
%TD*%
D27*
%TO.C,U1*%
X82738649Y14692249D03*
X83513649Y13117249D03*
X84288649Y11542249D03*
X85038649Y9967249D03*
X85813649Y8392249D03*
X86588649Y6817249D03*
X87338649Y5242249D03*
D28*
X86538649Y19567799D03*
X81813649Y19617249D03*
D29*
X77142961Y19673436D03*
D28*
X73088649Y24667249D03*
X63638649Y24967249D03*
D30*
X59713649Y24942249D03*
D31*
X16988649Y22717249D03*
D32*
X14863649Y22717249D03*
X13213649Y22717249D03*
D31*
X11013649Y22717249D03*
D33*
X72263649Y2692249D03*
D34*
X74063649Y2692249D03*
%TD*%
D35*
%TO.C,Q1*%
X72462500Y6900000D03*
X72462500Y5000000D03*
X74337500Y5950000D03*
%TD*%
D12*
%TO.C,C1*%
X3280000Y17000000D03*
X2320000Y17000000D03*
%TD*%
D10*
%TO.C,R5*%
X70725000Y10000000D03*
X69075000Y10000000D03*
%TD*%
D36*
%TO.C,C13*%
X-850000Y13575000D03*
X-850000Y12025000D03*
%TD*%
D20*
%TO.C,R7*%
X69075000Y16200000D03*
X70725000Y16200000D03*
%TD*%
D14*
%TO.C,C3*%
X7280000Y8630000D03*
X7280000Y7670000D03*
%TD*%
D20*
%TO.C,R13*%
X69075000Y19300000D03*
X70725000Y19300000D03*
%TD*%
D21*
%TO.C,R17*%
X11200000Y8425000D03*
X11200000Y6775000D03*
%TD*%
D14*
%TO.C,C14*%
X3550000Y8930000D03*
X3550000Y7970000D03*
%TD*%
D22*
%TO.C,C16*%
X4125000Y5250000D03*
X2575000Y5250000D03*
%TD*%
D12*
%TO.C,C2*%
X3280000Y18000000D03*
X2320000Y18000000D03*
%TD*%
D37*
%TO.C,C11*%
X4520000Y18450000D03*
X5480000Y18450000D03*
%TD*%
D14*
%TO.C,R3*%
X-1100000Y10830000D03*
X-1100000Y9870000D03*
%TD*%
D10*
%TO.C,R6*%
X70725000Y14650000D03*
X69075000Y14650000D03*
%TD*%
%TO.C,R12*%
X70725000Y5400000D03*
X69075000Y5400000D03*
%TD*%
D12*
%TO.C,C10*%
X3280000Y16000000D03*
X2320000Y16000000D03*
%TD*%
D14*
%TO.C,C17*%
X8280000Y8630000D03*
X8280000Y7670000D03*
%TD*%
D37*
%TO.C,C4*%
X7970000Y2100000D03*
X8930000Y2100000D03*
%TD*%
D20*
%TO.C,R9*%
X69075000Y17750000D03*
X70725000Y17750000D03*
%TD*%
D38*
%TO.C,U3*%
X329999Y10639999D03*
X829999Y10639999D03*
X1329999Y10639999D03*
X1829999Y10639999D03*
X1829999Y13539999D03*
X1329999Y13539999D03*
X829999Y13539999D03*
X329999Y13539999D03*
D39*
X1079999Y12089999D03*
%TD*%
D37*
%TO.C,C18*%
X7120000Y19000000D03*
X8080000Y19000000D03*
%TD*%
M02*
