%TF.GenerationSoftware,KiCad,Pcbnew,(7.0.0-40-g49f6a63a06)*%
%TF.CreationDate,2023-02-16T00:57:38+00:00*%
%TF.ProjectId,OPSX,4f505358-2e6b-4696-9361-645f70636258,rev?*%
%TF.SameCoordinates,PX6578900PY6a86820*%
%TF.FileFunction,Profile,NP*%
%FSLAX46Y46*%
G04 Gerber Fmt 4.6, Leading zero omitted, Abs format (unit mm)*
G04 Created by KiCad (PCBNEW (7.0.0-40-g49f6a63a06)) date 2023-02-16 00:57:38*
%MOMM*%
%LPD*%
G01*
G04 APERTURE LIST*
%TA.AperFunction,Profile*%
%ADD10C,0.120000*%
%TD*%
%TA.AperFunction,Profile*%
%ADD11C,0.050000*%
%TD*%
G04 APERTURE END LIST*
D10*
%TO.C,U1*%
X-5911750Y17669850D02*
X-3323850Y17669851D01*
X-5911750Y13842550D02*
X-5911750Y17669850D01*
X-5911750Y12142250D02*
X-3323850Y12141950D01*
X-5911750Y4033252D02*
X-5911750Y12142250D01*
X-3786350Y4033252D02*
X-5911750Y4033252D01*
X-3323850Y13842550D02*
X-5911750Y13842550D01*
X-1745350Y-1615350D02*
X-1745348Y1992250D01*
X-1013917Y24292250D02*
X19173750Y24292250D01*
X-1013917Y19992250D02*
X-1013917Y24292250D01*
X19173750Y26195350D02*
X65813650Y26195350D01*
X19173750Y24292250D02*
X19173750Y26195350D01*
X25303309Y11306225D02*
X33957350Y5616724D01*
X34013650Y20369205D02*
X25364929Y14532875D01*
X43365585Y5613817D02*
X52009750Y11314850D01*
X43413650Y20369205D02*
X51956826Y14541710D01*
X62555950Y793550D02*
X62555950Y-1615350D01*
X62555950Y-1615350D02*
X-1745350Y-1615350D01*
X65813650Y26195350D02*
X66606050Y25457050D01*
X66606050Y25457050D02*
X83635650Y25457050D01*
X76311850Y1842250D02*
X76311850Y793550D01*
X76311850Y793550D02*
X62555950Y793550D01*
X83635650Y25457050D02*
X83635650Y22592350D01*
X85713650Y20514350D02*
X89971750Y20514350D01*
X89971750Y20514350D02*
X89971750Y4022950D01*
X89971750Y4022950D02*
X78492550Y4022950D01*
X58663650Y24242250D02*
X60713650Y24242250D01*
X60713650Y24242250D02*
X60713650Y23042250D01*
X60713650Y23042250D02*
X58663650Y23042250D01*
X58663650Y23042250D02*
X58663650Y24242250D01*
X62613650Y24292250D02*
X64663650Y24292250D01*
X64663650Y24292250D02*
X64663650Y23092250D01*
X64663650Y23092250D02*
X62613650Y23092250D01*
X62613650Y23092250D02*
X62613650Y24292250D01*
X72063650Y24092250D02*
X74113650Y24092250D01*
X74113650Y24092250D02*
X74113650Y22892250D01*
X74113650Y22892250D02*
X72063650Y22892250D01*
X72063650Y22892250D02*
X72063650Y24092250D01*
X77813650Y18692250D02*
X79013650Y18692250D01*
X79013650Y18692250D02*
X79013650Y20692250D01*
X79013650Y20692250D02*
X77813650Y20692250D01*
X77813650Y20692250D02*
X77813650Y18692250D01*
X80788650Y18892250D02*
X82838650Y18892250D01*
X82838650Y18892250D02*
X82838650Y17692250D01*
X82838650Y17692250D02*
X80788650Y17692250D01*
X80788650Y17692250D02*
X80788650Y18892250D01*
X85513650Y18842250D02*
X87563650Y18842250D01*
X87563650Y18842250D02*
X87563650Y17642250D01*
X87563650Y17642250D02*
X85513650Y17642250D01*
X85513650Y17642250D02*
X85513650Y18842250D01*
X-1745348Y1992250D02*
G75*
G03*
X-3786350Y4033252I-2041003J-1D01*
G01*
X-3323850Y12141950D02*
G75*
G03*
X-3323850Y13842550I0J850300D01*
G01*
X-3323850Y17669852D02*
G75*
G03*
X-1013917Y19992250I-12498J2322397D01*
G01*
X25364930Y14532874D02*
G75*
G03*
X25303310Y11306226I1398719J-1640624D01*
G01*
X38713650Y21792249D02*
G75*
G03*
X34013651Y20369204I0J-8473047D01*
G01*
X43413650Y20369205D02*
G75*
G03*
X38713650Y21792250I-4700000J-7050005D01*
G01*
X33957350Y5616724D02*
G75*
G03*
X43365585Y5613817I4706300J7062301D01*
G01*
X52009749Y11314851D02*
G75*
G03*
X51956826Y14541710I-1448359J1590109D01*
G01*
X78492550Y4022950D02*
G75*
G03*
X76311850Y1842250I0J-2180700D01*
G01*
X83635650Y22592350D02*
G75*
G03*
X85713650Y20514350I2078000J0D01*
G01*
D11*
X66725050Y13129850D02*
G75*
G03*
X66725050Y13129850I-920000J0D01*
G01*
%TD*%
M02*
