M48
; DRILL file {KiCad (7.0.0-40-g49f6a63a06)} date Thu Feb 16 00:57:34 2023
; FORMAT={-:-/ absolute / metric / decimal}
; #@! TF.CreationDate,2023-02-16T00:57:34+00:00
; #@! TF.GenerationSoftware,Kicad,Pcbnew,(7.0.0-40-g49f6a63a06)
; #@! TF.FileFunction,Plated,1,2,PTH
FMAT,2
METRIC
; #@! TA.AperFunction,Plated,PTH,ComponentDrill
T1C0.350
; #@! TA.AperFunction,Plated,PTH,ViaDrill
T2C0.400
; #@! TA.AperFunction,Plated,PTH,ComponentDrill
T3C0.400
; #@! TA.AperFunction,Plated,PTH,ComponentDrill
T4C0.650
%
G90
G05
T1
X6.905Y15.075
X6.905Y13.8
X6.905Y12.525
X8.18Y15.075
X8.18Y13.8
X8.18Y12.525
X9.455Y15.075
X9.455Y13.8
X9.455Y12.525
T2
X-3.9Y16.4
X-3.9Y15.1
X-3.9Y10.3
X-3.9Y8.8
X-3.9Y7.3
X-3.9Y5.8
X-0.8Y2.4
X-0.701Y13.575
X0.2Y5.35
X1.2Y4.2
X1.5Y8.35
X1.65Y1.7
X2.4Y1.0
X2.7Y10.9
X3.5Y14.1
X3.95Y19.5
X4.5Y10.0
X4.6Y20.8
X4.85Y19.5
X5.659Y16.254
X5.8Y20.8
X6.5Y6.6
X7.28Y8.749
X7.5Y6.6
X7.6Y11.5
X7.95Y21.75
X8.084Y19.002
X8.25Y8.75
X8.5Y6.6
X8.7Y22.5
X9.3Y21.3
X9.3Y19.9
X9.6Y-0.6
X9.7Y8.425
X10.581Y13.7
X10.7Y-0.6
X11.2Y8.4
X11.8Y0.5
X11.8Y-0.6
X12.7Y8.4
X12.9Y5.0
X12.9Y3.5
X12.9Y2.0
X12.9Y0.5
X12.9Y-0.6
X13.3Y20.4
X13.95Y8.05
X14.0Y5.0
X14.0Y3.5
X14.0Y2.0
X14.0Y0.5
X14.0Y-0.6
X15.1Y20.4
X15.1Y6.5
X15.1Y5.0
X15.1Y3.5
X15.1Y2.0
X15.1Y0.5
X15.1Y-0.6
X17.1Y20.4
X17.15Y15.1
X17.15Y13.9
X17.15Y12.7
X17.15Y11.5
X19.0Y23.3
X19.0Y21.9
X19.0Y20.4
X53.5Y20.1
X53.5Y5.8
X55.8Y20.1
X55.8Y14.0
X55.8Y11.9
X55.8Y5.8
X58.1Y20.1
X58.1Y14.0
X58.1Y11.9
X58.1Y5.8
X60.3Y20.1
X60.3Y14.0
X60.3Y11.9
X60.3Y5.8
X62.5Y20.1
X62.5Y14.0
X62.5Y11.9
X62.5Y5.8
X64.7Y20.1
X64.7Y5.8
X66.3Y3.1
X66.3Y2.2
X66.9Y20.1
X66.9Y5.8
X67.6Y3.1
X67.6Y2.2
X68.8Y3.1
X68.8Y2.2
X72.8Y21.8
X72.8Y20.2
X72.8Y18.6
X72.8Y15.8
X73.32Y11.8
X73.32Y10.4
X74.3Y15.8
X74.8Y21.8
X74.8Y20.2
X74.8Y18.6
X74.88Y11.8
X74.88Y10.4
X75.8Y15.8
X76.44Y11.8
X76.44Y10.4
X77.3Y15.8
X78.0Y11.8
X78.0Y10.4
X79.0Y15.8
X79.56Y11.8
X79.56Y10.4
X80.7Y15.8
X81.12Y11.8
X81.12Y10.4
X83.1Y5.0
X83.2Y7.9
X84.1Y5.0
X84.3Y7.6
X85.1Y4.8
X88.5Y16.567
X88.5Y15.2
X88.5Y13.833
X88.5Y12.467
X88.5Y11.1
X88.5Y9.733
X88.5Y8.367
T3
X8.2Y4.35
X8.2Y3.45
T4
X-0.017Y22.75
X1.252Y22.75
X2.522Y22.75
X3.792Y22.75
T0
M30
