%TF.GenerationSoftware,KiCad,Pcbnew,(7.0.0-40-g49f6a63a06)*%
%TF.CreationDate,2023-02-16T00:57:38+00:00*%
%TF.ProjectId,OPSX,4f505358-2e6b-4696-9361-645f70636258,rev?*%
%TF.SameCoordinates,PX6578900PY6a86820*%
%TF.FileFunction,Legend,Top*%
%TF.FilePolarity,Positive*%
%FSLAX46Y46*%
G04 Gerber Fmt 4.6, Leading zero omitted, Abs format (unit mm)*
G04 Created by KiCad (PCBNEW (7.0.0-40-g49f6a63a06)) date 2023-02-16 00:57:38*
%MOMM*%
%LPD*%
G01*
G04 APERTURE LIST*
%ADD10C,0.200000*%
%ADD11C,0.100000*%
%ADD12C,0.120000*%
%ADD13C,0.171803*%
G04 APERTURE END LIST*
D10*
X35247619Y10964286D02*
X35009523Y10726191D01*
X35009523Y10726191D02*
X34295238Y10488096D01*
X34295238Y10488096D02*
X33819047Y10488096D01*
X33819047Y10488096D02*
X33104761Y10726191D01*
X33104761Y10726191D02*
X32628571Y11202381D01*
X32628571Y11202381D02*
X32390476Y11678572D01*
X32390476Y11678572D02*
X32152380Y12630953D01*
X32152380Y12630953D02*
X32152380Y13345239D01*
X32152380Y13345239D02*
X32390476Y14297620D01*
X32390476Y14297620D02*
X32628571Y14773810D01*
X32628571Y14773810D02*
X33104761Y15250000D01*
X33104761Y15250000D02*
X33819047Y15488096D01*
X33819047Y15488096D02*
X34295238Y15488096D01*
X34295238Y15488096D02*
X35009523Y15250000D01*
X35009523Y15250000D02*
X35247619Y15011905D01*
X37390476Y15488096D02*
X37390476Y11440477D01*
X37390476Y11440477D02*
X37628571Y10964286D01*
X37628571Y10964286D02*
X37866666Y10726191D01*
X37866666Y10726191D02*
X38342857Y10488096D01*
X38342857Y10488096D02*
X39295238Y10488096D01*
X39295238Y10488096D02*
X39771428Y10726191D01*
X39771428Y10726191D02*
X40009523Y10964286D01*
X40009523Y10964286D02*
X40247619Y11440477D01*
X40247619Y11440477D02*
X40247619Y15488096D01*
X41914285Y15488096D02*
X44771428Y15488096D01*
X43342856Y10488096D02*
X43342856Y15488096D01*
D11*
X16707141Y5179572D02*
X16821427Y5179572D01*
X16821427Y5179572D02*
X16878570Y5151000D01*
X16878570Y5151000D02*
X16935713Y5093858D01*
X16935713Y5093858D02*
X16964284Y4979572D01*
X16964284Y4979572D02*
X16964284Y4779572D01*
X16964284Y4779572D02*
X16935713Y4665286D01*
X16935713Y4665286D02*
X16878570Y4608143D01*
X16878570Y4608143D02*
X16821427Y4579572D01*
X16821427Y4579572D02*
X16707141Y4579572D01*
X16707141Y4579572D02*
X16649999Y4608143D01*
X16649999Y4608143D02*
X16592856Y4665286D01*
X16592856Y4665286D02*
X16564284Y4779572D01*
X16564284Y4779572D02*
X16564284Y4979572D01*
X16564284Y4979572D02*
X16592856Y5093858D01*
X16592856Y5093858D02*
X16649999Y5151000D01*
X16649999Y5151000D02*
X16707141Y5179572D01*
X17221427Y4579572D02*
X17221427Y5179572D01*
X17221427Y5179572D02*
X17449998Y5179572D01*
X17449998Y5179572D02*
X17507141Y5151000D01*
X17507141Y5151000D02*
X17535712Y5122429D01*
X17535712Y5122429D02*
X17564284Y5065286D01*
X17564284Y5065286D02*
X17564284Y4979572D01*
X17564284Y4979572D02*
X17535712Y4922429D01*
X17535712Y4922429D02*
X17507141Y4893858D01*
X17507141Y4893858D02*
X17449998Y4865286D01*
X17449998Y4865286D02*
X17221427Y4865286D01*
X17792855Y4608143D02*
X17878570Y4579572D01*
X17878570Y4579572D02*
X18021427Y4579572D01*
X18021427Y4579572D02*
X18078570Y4608143D01*
X18078570Y4608143D02*
X18107141Y4636715D01*
X18107141Y4636715D02*
X18135712Y4693858D01*
X18135712Y4693858D02*
X18135712Y4751000D01*
X18135712Y4751000D02*
X18107141Y4808143D01*
X18107141Y4808143D02*
X18078570Y4836715D01*
X18078570Y4836715D02*
X18021427Y4865286D01*
X18021427Y4865286D02*
X17907141Y4893858D01*
X17907141Y4893858D02*
X17849998Y4922429D01*
X17849998Y4922429D02*
X17821427Y4951000D01*
X17821427Y4951000D02*
X17792855Y5008143D01*
X17792855Y5008143D02*
X17792855Y5065286D01*
X17792855Y5065286D02*
X17821427Y5122429D01*
X17821427Y5122429D02*
X17849998Y5151000D01*
X17849998Y5151000D02*
X17907141Y5179572D01*
X17907141Y5179572D02*
X18049998Y5179572D01*
X18049998Y5179572D02*
X18135712Y5151000D01*
X18335713Y5179572D02*
X18735713Y4579572D01*
X18735713Y5179572D02*
X18335713Y4579572D01*
X19238570Y5179572D02*
X19438570Y4579572D01*
X19438570Y4579572D02*
X19638570Y5179572D01*
X20067142Y4608143D02*
X20009999Y4579572D01*
X20009999Y4579572D02*
X19895714Y4579572D01*
X19895714Y4579572D02*
X19838571Y4608143D01*
X19838571Y4608143D02*
X19809999Y4665286D01*
X19809999Y4665286D02*
X19809999Y4893858D01*
X19809999Y4893858D02*
X19838571Y4951000D01*
X19838571Y4951000D02*
X19895714Y4979572D01*
X19895714Y4979572D02*
X20009999Y4979572D01*
X20009999Y4979572D02*
X20067142Y4951000D01*
X20067142Y4951000D02*
X20095714Y4893858D01*
X20095714Y4893858D02*
X20095714Y4836715D01*
X20095714Y4836715D02*
X19809999Y4779572D01*
X20352857Y4579572D02*
X20352857Y4979572D01*
X20352857Y4865286D02*
X20381428Y4922429D01*
X20381428Y4922429D02*
X20410000Y4951000D01*
X20410000Y4951000D02*
X20467142Y4979572D01*
X20467142Y4979572D02*
X20524285Y4979572D01*
X21398571Y4579572D02*
X21055714Y4579572D01*
X21227143Y4579572D02*
X21227143Y5179572D01*
X21227143Y5179572D02*
X21170000Y5093858D01*
X21170000Y5093858D02*
X21112857Y5036715D01*
X21112857Y5036715D02*
X21055714Y5008143D01*
X21655715Y4636715D02*
X21684286Y4608143D01*
X21684286Y4608143D02*
X21655715Y4579572D01*
X21655715Y4579572D02*
X21627143Y4608143D01*
X21627143Y4608143D02*
X21655715Y4636715D01*
X21655715Y4636715D02*
X21655715Y4579572D01*
X22055714Y5179572D02*
X22112857Y5179572D01*
X22112857Y5179572D02*
X22170000Y5151000D01*
X22170000Y5151000D02*
X22198572Y5122429D01*
X22198572Y5122429D02*
X22227143Y5065286D01*
X22227143Y5065286D02*
X22255714Y4951000D01*
X22255714Y4951000D02*
X22255714Y4808143D01*
X22255714Y4808143D02*
X22227143Y4693858D01*
X22227143Y4693858D02*
X22198572Y4636715D01*
X22198572Y4636715D02*
X22170000Y4608143D01*
X22170000Y4608143D02*
X22112857Y4579572D01*
X22112857Y4579572D02*
X22055714Y4579572D01*
X22055714Y4579572D02*
X21998572Y4608143D01*
X21998572Y4608143D02*
X21970000Y4636715D01*
X21970000Y4636715D02*
X21941429Y4693858D01*
X21941429Y4693858D02*
X21912857Y4808143D01*
X21912857Y4808143D02*
X21912857Y4951000D01*
X21912857Y4951000D02*
X21941429Y5065286D01*
X21941429Y5065286D02*
X21970000Y5122429D01*
X21970000Y5122429D02*
X21998572Y5151000D01*
X21998572Y5151000D02*
X22055714Y5179572D01*
X16572857Y3479572D02*
X16572857Y4079572D01*
X16572857Y4079572D02*
X16801428Y4079572D01*
X16801428Y4079572D02*
X16858571Y4051000D01*
X16858571Y4051000D02*
X16887142Y4022429D01*
X16887142Y4022429D02*
X16915714Y3965286D01*
X16915714Y3965286D02*
X16915714Y3879572D01*
X16915714Y3879572D02*
X16887142Y3822429D01*
X16887142Y3822429D02*
X16858571Y3793858D01*
X16858571Y3793858D02*
X16801428Y3765286D01*
X16801428Y3765286D02*
X16572857Y3765286D01*
X17515714Y3479572D02*
X17315714Y3765286D01*
X17172857Y3479572D02*
X17172857Y4079572D01*
X17172857Y4079572D02*
X17401428Y4079572D01*
X17401428Y4079572D02*
X17458571Y4051000D01*
X17458571Y4051000D02*
X17487142Y4022429D01*
X17487142Y4022429D02*
X17515714Y3965286D01*
X17515714Y3965286D02*
X17515714Y3879572D01*
X17515714Y3879572D02*
X17487142Y3822429D01*
X17487142Y3822429D02*
X17458571Y3793858D01*
X17458571Y3793858D02*
X17401428Y3765286D01*
X17401428Y3765286D02*
X17172857Y3765286D01*
X17772857Y3793858D02*
X17972857Y3793858D01*
X18058571Y3479572D02*
X17772857Y3479572D01*
X17772857Y3479572D02*
X17772857Y4079572D01*
X17772857Y4079572D02*
X18058571Y4079572D01*
X18287142Y3508143D02*
X18372857Y3479572D01*
X18372857Y3479572D02*
X18515714Y3479572D01*
X18515714Y3479572D02*
X18572857Y3508143D01*
X18572857Y3508143D02*
X18601428Y3536715D01*
X18601428Y3536715D02*
X18629999Y3593858D01*
X18629999Y3593858D02*
X18629999Y3651000D01*
X18629999Y3651000D02*
X18601428Y3708143D01*
X18601428Y3708143D02*
X18572857Y3736715D01*
X18572857Y3736715D02*
X18515714Y3765286D01*
X18515714Y3765286D02*
X18401428Y3793858D01*
X18401428Y3793858D02*
X18344285Y3822429D01*
X18344285Y3822429D02*
X18315714Y3851000D01*
X18315714Y3851000D02*
X18287142Y3908143D01*
X18287142Y3908143D02*
X18287142Y3965286D01*
X18287142Y3965286D02*
X18315714Y4022429D01*
X18315714Y4022429D02*
X18344285Y4051000D01*
X18344285Y4051000D02*
X18401428Y4079572D01*
X18401428Y4079572D02*
X18544285Y4079572D01*
X18544285Y4079572D02*
X18629999Y4051000D01*
X18887143Y3793858D02*
X19087143Y3793858D01*
X19172857Y3479572D02*
X18887143Y3479572D01*
X18887143Y3479572D02*
X18887143Y4079572D01*
X18887143Y4079572D02*
X19172857Y4079572D01*
X19430000Y3479572D02*
X19430000Y4079572D01*
X19430000Y4079572D02*
X19772857Y3479572D01*
X19772857Y3479572D02*
X19772857Y4079572D01*
X19972856Y4079572D02*
X20315714Y4079572D01*
X20144285Y3479572D02*
X20144285Y4079572D01*
X20515714Y3793858D02*
X20715714Y3793858D01*
X20801428Y3479572D02*
X20515714Y3479572D01*
X20515714Y3479572D02*
X20515714Y4079572D01*
X20515714Y4079572D02*
X20801428Y4079572D01*
X21058571Y3479572D02*
X21058571Y4079572D01*
X21058571Y4079572D02*
X21201428Y4079572D01*
X21201428Y4079572D02*
X21287142Y4051000D01*
X21287142Y4051000D02*
X21344285Y3993858D01*
X21344285Y3993858D02*
X21372856Y3936715D01*
X21372856Y3936715D02*
X21401428Y3822429D01*
X21401428Y3822429D02*
X21401428Y3736715D01*
X21401428Y3736715D02*
X21372856Y3622429D01*
X21372856Y3622429D02*
X21344285Y3565286D01*
X21344285Y3565286D02*
X21287142Y3508143D01*
X21287142Y3508143D02*
X21201428Y3479572D01*
X21201428Y3479572D02*
X21058571Y3479572D01*
X22218571Y3793858D02*
X22304285Y3765286D01*
X22304285Y3765286D02*
X22332856Y3736715D01*
X22332856Y3736715D02*
X22361428Y3679572D01*
X22361428Y3679572D02*
X22361428Y3593858D01*
X22361428Y3593858D02*
X22332856Y3536715D01*
X22332856Y3536715D02*
X22304285Y3508143D01*
X22304285Y3508143D02*
X22247142Y3479572D01*
X22247142Y3479572D02*
X22018571Y3479572D01*
X22018571Y3479572D02*
X22018571Y4079572D01*
X22018571Y4079572D02*
X22218571Y4079572D01*
X22218571Y4079572D02*
X22275714Y4051000D01*
X22275714Y4051000D02*
X22304285Y4022429D01*
X22304285Y4022429D02*
X22332856Y3965286D01*
X22332856Y3965286D02*
X22332856Y3908143D01*
X22332856Y3908143D02*
X22304285Y3851000D01*
X22304285Y3851000D02*
X22275714Y3822429D01*
X22275714Y3822429D02*
X22218571Y3793858D01*
X22218571Y3793858D02*
X22018571Y3793858D01*
X22732856Y3765286D02*
X22732856Y3479572D01*
X22532856Y4079572D02*
X22732856Y3765286D01*
X22732856Y3765286D02*
X22932856Y4079572D01*
D12*
%TO.C,R10*%
X70137258Y11027500D02*
X69662742Y11027500D01*
X70137258Y12072500D02*
X69662742Y12072500D01*
%TO.C,Q2*%
X69450000Y20240000D02*
X71125000Y20240000D01*
X69450000Y20240000D02*
X68800000Y20240000D01*
X69450000Y23360000D02*
X70100000Y23360000D01*
X69450000Y23360000D02*
X68800000Y23360000D01*
%TO.C,C12*%
X-592164Y14440000D02*
X-807836Y14440000D01*
X-592164Y15160000D02*
X-807836Y15160000D01*
%TO.C,R14*%
X5970000Y3896359D02*
X5970000Y4203641D01*
X6730000Y3896359D02*
X6730000Y4203641D01*
%TO.C,C9*%
X6660000Y8257836D02*
X6660000Y8042164D01*
X5940000Y8257836D02*
X5940000Y8042164D01*
%TO.C,Y1*%
X16300000Y15500000D02*
X14300000Y15500000D01*
X14300000Y15500000D02*
X13900000Y15500000D01*
X16300000Y15300000D02*
X16300000Y14300000D01*
X14300000Y15300000D02*
X16300000Y15300000D01*
X14300000Y15300000D02*
X13900000Y15300000D01*
X13900000Y14300000D02*
X13900000Y15300000D01*
X16300000Y12500000D02*
X16300000Y11700000D01*
X16300000Y11700000D02*
X14300000Y11700000D01*
X14300000Y11700000D02*
X13900000Y11700000D01*
X13900000Y11700000D02*
X13900000Y12500000D01*
%TO.C,C8*%
X2910000Y8557836D02*
X2910000Y8342164D01*
X2190000Y8557836D02*
X2190000Y8342164D01*
%TO.C,R1*%
X710000Y16607836D02*
X710000Y16392164D01*
X-10000Y16607836D02*
X-10000Y16392164D01*
%TO.C,U2*%
X11790000Y10190000D02*
X11140000Y10190000D01*
X4570000Y10840000D02*
X4570000Y10190000D01*
X11790000Y10840000D02*
X11790000Y10190000D01*
X4570000Y16760000D02*
X4570000Y17410000D01*
X11790000Y16760000D02*
X11790000Y17410000D01*
X4570000Y17410000D02*
X5220000Y17410000D01*
X11790000Y17410000D02*
X11140000Y17410000D01*
%TO.C,D2*%
X76300000Y21550000D02*
X78000000Y21550000D01*
X76300000Y21550000D02*
X76300000Y24100000D01*
X78000000Y21550000D02*
X78000000Y24100000D01*
%TO.C,R11*%
X69662742Y13622500D02*
X70137258Y13622500D01*
X69662742Y12577500D02*
X70137258Y12577500D01*
%TO.C,C5*%
X5710000Y4157836D02*
X5710000Y3942164D01*
X4990000Y4157836D02*
X4990000Y3942164D01*
%TO.C,D3*%
X2000000Y18650000D02*
X3700000Y18650000D01*
X2000000Y18650000D02*
X2000000Y21200000D01*
X3700000Y18650000D02*
X3700000Y21200000D01*
%TO.C,R8*%
X69662742Y7472500D02*
X70137258Y7472500D01*
X69662742Y6427500D02*
X70137258Y6427500D01*
%TO.C,R16*%
X10222500Y7837258D02*
X10222500Y7362742D01*
X9177500Y7837258D02*
X9177500Y7362742D01*
%TO.C,D1*%
X71250000Y4500000D02*
X69550000Y4500000D01*
X71250000Y4500000D02*
X71250000Y1950000D01*
X69550000Y4500000D02*
X69550000Y1950000D01*
%TO.C,R2*%
X1710000Y16607836D02*
X1710000Y16392164D01*
X990000Y16607836D02*
X990000Y16392164D01*
%TO.C,C6*%
X3490580Y3240000D02*
X3209420Y3240000D01*
X3490580Y4260000D02*
X3209420Y4260000D01*
%TO.C,R18*%
X13222500Y7837258D02*
X13222500Y7362742D01*
X12177500Y7837258D02*
X12177500Y7362742D01*
%TO.C,R15*%
X5696359Y2980000D02*
X6003641Y2980000D01*
X5696359Y2220000D02*
X6003641Y2220000D01*
%TO.C,U4*%
X7200000Y2790000D02*
X9200000Y2790000D01*
X8200000Y5010000D02*
X9200000Y5010000D01*
%TO.C,R4*%
X12990000Y14142164D02*
X12990000Y14357836D01*
X13710000Y14142164D02*
X13710000Y14357836D01*
%TO.C,C7*%
X3490580Y6240000D02*
X3209420Y6240000D01*
X3490580Y7260000D02*
X3209420Y7260000D01*
%TO.C,Q1*%
X73400000Y7510000D02*
X71725000Y7510000D01*
X73400000Y7510000D02*
X74050000Y7510000D01*
X73400000Y4390000D02*
X72750000Y4390000D01*
X73400000Y4390000D02*
X74050000Y4390000D01*
%TO.C,C1*%
X2907836Y16640000D02*
X2692164Y16640000D01*
X2907836Y17360000D02*
X2692164Y17360000D01*
%TO.C,R5*%
X70137258Y9477500D02*
X69662742Y9477500D01*
X70137258Y10522500D02*
X69662742Y10522500D01*
%TO.C,SW1*%
X0Y6300000D02*
X-600000Y6300000D01*
X-1300000Y7000000D02*
X-1300000Y8400000D01*
X700000Y8400000D02*
X700000Y7000000D01*
X-600000Y9100000D02*
X0Y9100000D01*
X-1300000Y7000000D02*
G75*
G03*
X-600000Y6300000I699999J-1D01*
G01*
X0Y6300000D02*
G75*
G03*
X700000Y7000000I1J699999D01*
G01*
X-600000Y9100000D02*
G75*
G03*
X-1300000Y8400000I0J-700000D01*
G01*
X700000Y8400000D02*
G75*
G03*
X0Y9100000I-700000J0D01*
G01*
%TO.C,C13*%
X-340000Y12940580D02*
X-340000Y12659420D01*
X-1360000Y12940580D02*
X-1360000Y12659420D01*
%TO.C,R7*%
X69662742Y16722500D02*
X70137258Y16722500D01*
X69662742Y15677500D02*
X70137258Y15677500D01*
%TO.C,J1*%
X4442500Y23800000D02*
X4442500Y21700000D01*
%TO.C,C3*%
X7640000Y8257836D02*
X7640000Y8042164D01*
X6920000Y8257836D02*
X6920000Y8042164D01*
%TO.C,R13*%
X69662742Y19822500D02*
X70137258Y19822500D01*
X69662742Y18777500D02*
X70137258Y18777500D01*
%TO.C,R17*%
X11722500Y7837258D02*
X11722500Y7362742D01*
X10677500Y7837258D02*
X10677500Y7362742D01*
%TO.C,C14*%
X3910000Y8557836D02*
X3910000Y8342164D01*
X3190000Y8557836D02*
X3190000Y8342164D01*
%TO.C,C16*%
X3490580Y4740000D02*
X3209420Y4740000D01*
X3490580Y5760000D02*
X3209420Y5760000D01*
%TO.C,C2*%
X2907836Y17640000D02*
X2692164Y17640000D01*
X2907836Y18360000D02*
X2692164Y18360000D01*
%TO.C,C11*%
X4892164Y18810000D02*
X5107836Y18810000D01*
X4892164Y18090000D02*
X5107836Y18090000D01*
%TO.C,R3*%
X-740000Y10457836D02*
X-740000Y10242164D01*
X-1460000Y10457836D02*
X-1460000Y10242164D01*
%TO.C,G\u002A\u002A\u002A*%
G36*
X19088415Y2795266D02*
G01*
X19132732Y2793482D01*
X19153615Y2791028D01*
X19184966Y2783235D01*
X19181405Y1724030D01*
X19177845Y664825D01*
X18795561Y657093D01*
X18802681Y2790755D01*
X18962473Y2794788D01*
X19029326Y2795748D01*
X19088415Y2795266D01*
G37*
G36*
X21154832Y2627598D02*
G01*
X21150930Y2457276D01*
X20834922Y2453542D01*
X20518913Y2449807D01*
X20515337Y1557316D01*
X20511762Y664825D01*
X20320706Y660960D01*
X20129650Y657094D01*
X20129650Y2449816D01*
X19483534Y2457276D01*
X19483534Y2790755D01*
X20321134Y2794338D01*
X21158735Y2797920D01*
X21154832Y2627598D01*
G37*
G36*
X18380927Y2796915D02*
G01*
X18444057Y2795445D01*
X18497641Y2792907D01*
X18535629Y2789338D01*
X18551974Y2784770D01*
X18552019Y2784702D01*
X18546014Y2771245D01*
X18526224Y2737151D01*
X18494266Y2684913D01*
X18451755Y2617027D01*
X18400307Y2535989D01*
X18341538Y2444292D01*
X18277062Y2344431D01*
X18208495Y2238903D01*
X18137454Y2130201D01*
X18065553Y2020820D01*
X17994409Y1913257D01*
X17925636Y1810004D01*
X17860850Y1713558D01*
X17807673Y1635202D01*
X17739716Y1535667D01*
X17739716Y657878D01*
X17364552Y657878D01*
X17364329Y1092096D01*
X17364106Y1526313D01*
X16949398Y2151587D01*
X16852363Y2298305D01*
X16770327Y2423286D01*
X16702560Y2527701D01*
X16648332Y2612722D01*
X16606913Y2679521D01*
X16577571Y2729270D01*
X16559578Y2763142D01*
X16552202Y2782308D01*
X16553068Y2787666D01*
X16573006Y2791291D01*
X16615178Y2793843D01*
X16674040Y2795147D01*
X16744049Y2795024D01*
X16769996Y2794614D01*
X16968545Y2790755D01*
X17093600Y2599731D01*
X17145231Y2520682D01*
X17200445Y2435840D01*
X17253541Y2353987D01*
X17298814Y2283905D01*
X17310170Y2266252D01*
X17376762Y2162555D01*
X17429892Y2079971D01*
X17471206Y2016292D01*
X17502352Y1969307D01*
X17524975Y1936807D01*
X17540722Y1916583D01*
X17551240Y1906423D01*
X17558176Y1904120D01*
X17563177Y1907462D01*
X17567888Y1914241D01*
X17570087Y1917456D01*
X17581650Y1934884D01*
X17606261Y1972927D01*
X17642093Y2028728D01*
X17687316Y2099428D01*
X17740102Y2182171D01*
X17798624Y2274098D01*
X17853219Y2360011D01*
X17914996Y2456906D01*
X17972543Y2546395D01*
X18024068Y2625748D01*
X18067775Y2692236D01*
X18101872Y2743126D01*
X18124564Y2775689D01*
X18133753Y2787069D01*
X18153896Y2791445D01*
X18194734Y2794584D01*
X18250217Y2796519D01*
X18314297Y2797285D01*
X18380927Y2796915D01*
G37*
G36*
X24098097Y2796468D02*
G01*
X24154598Y2794583D01*
X24197723Y2791681D01*
X24220821Y2787801D01*
X24222247Y2787069D01*
X24233664Y2773646D01*
X24259193Y2740440D01*
X24296759Y2690254D01*
X24344283Y2625893D01*
X24399690Y2550161D01*
X24460903Y2465862D01*
X24492200Y2422539D01*
X24571065Y2313202D01*
X24658994Y2191334D01*
X24750723Y2064227D01*
X24840988Y1939174D01*
X24924525Y1823469D01*
X24983589Y1741685D01*
X25046115Y1655121D01*
X25105218Y1573289D01*
X25158399Y1499654D01*
X25203155Y1437678D01*
X25236987Y1390825D01*
X25257392Y1362558D01*
X25259014Y1360310D01*
X25298578Y1305467D01*
X25298578Y2783278D01*
X25329842Y2791049D01*
X25355941Y2793830D01*
X25402807Y2795426D01*
X25463436Y2795702D01*
X25520897Y2794788D01*
X25680690Y2790755D01*
X25684250Y1724317D01*
X25687810Y657878D01*
X25315103Y657878D01*
X25246050Y751669D01*
X25220979Y786046D01*
X25181799Y840182D01*
X25130557Y911226D01*
X25069299Y996325D01*
X25000071Y1092627D01*
X24924920Y1197280D01*
X24845891Y1307430D01*
X24765030Y1420226D01*
X24684384Y1532815D01*
X24606000Y1642345D01*
X24531922Y1745964D01*
X24464197Y1840818D01*
X24404872Y1924056D01*
X24383864Y1953584D01*
X24336685Y2019071D01*
X24294569Y2075900D01*
X24260278Y2120474D01*
X24236572Y2149198D01*
X24226454Y2158534D01*
X24224251Y2145061D01*
X24222183Y2106330D01*
X24220291Y2044872D01*
X24218613Y1963219D01*
X24217188Y1863902D01*
X24216057Y1749452D01*
X24215258Y1622402D01*
X24214832Y1485282D01*
X24214770Y1408206D01*
X24214770Y657878D01*
X23825711Y657878D01*
X23825711Y1719356D01*
X23825754Y1917536D01*
X23825905Y2089739D01*
X23826204Y2237778D01*
X23826686Y2363464D01*
X23827389Y2468610D01*
X23828351Y2555030D01*
X23829609Y2624536D01*
X23831199Y2678939D01*
X23833159Y2720054D01*
X23835527Y2749692D01*
X23838339Y2769666D01*
X23841632Y2781789D01*
X23845445Y2787873D01*
X23847690Y2789269D01*
X23871325Y2793055D01*
X23914833Y2795630D01*
X23971564Y2797031D01*
X24034869Y2797297D01*
X24098097Y2796468D01*
G37*
G36*
X21290930Y1784107D02*
G01*
X21689863Y1784107D01*
X21690299Y1671686D01*
X21707619Y1530200D01*
X21744091Y1398622D01*
X21798004Y1280879D01*
X21867652Y1180896D01*
X21930977Y1118444D01*
X21991369Y1075142D01*
X22062068Y1034272D01*
X22133224Y1000902D01*
X22194991Y980102D01*
X22203225Y978303D01*
X22260650Y970799D01*
X22333086Y966689D01*
X22410724Y965989D01*
X22483758Y968713D01*
X22542378Y974875D01*
X22557354Y977773D01*
X22678208Y1019567D01*
X22787628Y1085497D01*
X22883544Y1173533D01*
X22963884Y1281646D01*
X23026578Y1407808D01*
X23043388Y1454098D01*
X23063725Y1538964D01*
X23075766Y1639875D01*
X23079284Y1746892D01*
X23074053Y1850073D01*
X23059848Y1939478D01*
X23054868Y1958511D01*
X23002491Y2096383D01*
X22930959Y2215899D01*
X22841637Y2315685D01*
X22735889Y2394367D01*
X22615080Y2450571D01*
X22546081Y2470618D01*
X22446568Y2487853D01*
X22352284Y2489409D01*
X22250696Y2475241D01*
X22223586Y2469439D01*
X22115349Y2437649D01*
X22024158Y2392907D01*
X21940341Y2329908D01*
X21900475Y2292214D01*
X21813242Y2186556D01*
X21749244Y2067188D01*
X21708208Y1933306D01*
X21689863Y1784107D01*
X21290930Y1784107D01*
X21291220Y1806505D01*
X21297457Y1900787D01*
X21308603Y1979839D01*
X21316437Y2012637D01*
X21361710Y2150120D01*
X21412289Y2266434D01*
X21471689Y2368144D01*
X21543428Y2461814D01*
X21577141Y2499331D01*
X21650705Y2569493D01*
X21735255Y2636498D01*
X21821805Y2693813D01*
X21901258Y2734863D01*
X21973841Y2764429D01*
X22035484Y2786141D01*
X22092996Y2801188D01*
X22153187Y2810759D01*
X22222865Y2816041D01*
X22308840Y2818224D01*
X22380635Y2818545D01*
X22488026Y2817600D01*
X22574154Y2813878D01*
X22645509Y2806050D01*
X22708580Y2792788D01*
X22769858Y2772761D01*
X22835831Y2744642D01*
X22904850Y2711184D01*
X23045529Y2627665D01*
X23165126Y2527638D01*
X23266131Y2408577D01*
X23351032Y2267957D01*
X23360580Y2248852D01*
X23425840Y2084580D01*
X23465824Y1912478D01*
X23480546Y1736239D01*
X23470016Y1559560D01*
X23434247Y1386137D01*
X23373250Y1219665D01*
X23357213Y1185887D01*
X23321579Y1118232D01*
X23286107Y1062513D01*
X23244111Y1009592D01*
X23188904Y950330D01*
X23173213Y934417D01*
X23066878Y837582D01*
X22958949Y761759D01*
X22842271Y703031D01*
X22709688Y657478D01*
X22630744Y637388D01*
X22582931Y629838D01*
X22516607Y623886D01*
X22439508Y619742D01*
X22359372Y617614D01*
X22283935Y617711D01*
X22220934Y620242D01*
X22179158Y625193D01*
X22001196Y674377D01*
X21841109Y744081D01*
X21699511Y833952D01*
X21577016Y943638D01*
X21528878Y998641D01*
X21472479Y1079024D01*
X21417253Y1177060D01*
X21368026Y1282854D01*
X21329624Y1386508D01*
X21315604Y1435996D01*
X21302086Y1511740D01*
X21293523Y1604036D01*
X21289905Y1704939D01*
X21290930Y1784107D01*
G37*
G36*
X27250059Y2817468D02*
G01*
X27331904Y2815129D01*
X27398314Y2809414D01*
X27455464Y2799043D01*
X27509524Y2782736D01*
X27566668Y2759214D01*
X27633066Y2727195D01*
X27667670Y2709643D01*
X27733883Y2671935D01*
X27795785Y2627335D01*
X27861496Y2569638D01*
X27900411Y2531861D01*
X27947081Y2483984D01*
X27985420Y2441902D01*
X28011587Y2410032D01*
X28021740Y2392787D01*
X28021758Y2392402D01*
X28010397Y2380347D01*
X27980274Y2358542D01*
X27937098Y2330404D01*
X27886582Y2299348D01*
X27834437Y2268790D01*
X27786372Y2242145D01*
X27748100Y2222831D01*
X27725332Y2214262D01*
X27723678Y2214114D01*
X27709293Y2223009D01*
X27680196Y2246741D01*
X27641701Y2280884D01*
X27625506Y2295863D01*
X27513353Y2383113D01*
X27392137Y2444592D01*
X27263917Y2480000D01*
X27130750Y2489033D01*
X26994690Y2471392D01*
X26857797Y2426773D01*
X26827024Y2412954D01*
X26764834Y2375010D01*
X26696665Y2319592D01*
X26629563Y2253776D01*
X26570574Y2184637D01*
X26526743Y2119250D01*
X26518325Y2102954D01*
X26461291Y1954168D01*
X26432015Y1805959D01*
X26430496Y1658536D01*
X26456732Y1512103D01*
X26510722Y1366867D01*
X26522831Y1341972D01*
X26596547Y1224867D01*
X26689594Y1126701D01*
X26799921Y1049544D01*
X26826624Y1035435D01*
X26920228Y996385D01*
X27015987Y973534D01*
X27122529Y965310D01*
X27202127Y967090D01*
X27325990Y981415D01*
X27435032Y1012333D01*
X27538678Y1062853D01*
X27577353Y1086990D01*
X27653775Y1137254D01*
X27657687Y1300258D01*
X27661600Y1463262D01*
X27345051Y1466998D01*
X27028501Y1470733D01*
X27028501Y1804213D01*
X27531532Y1807859D01*
X28034562Y1811505D01*
X28043110Y1765946D01*
X28045261Y1739935D01*
X28046873Y1690408D01*
X28047903Y1621635D01*
X28048306Y1537885D01*
X28048041Y1443429D01*
X28047245Y1356966D01*
X28042834Y993545D01*
X28008097Y956513D01*
X27959467Y911698D01*
X27893669Y860666D01*
X27818698Y808988D01*
X27742551Y762236D01*
X27685814Y731957D01*
X27533281Y670634D01*
X27374052Y633033D01*
X27203219Y618096D01*
X27155248Y617805D01*
X27087176Y618907D01*
X27027337Y620706D01*
X26982317Y622950D01*
X26959026Y625315D01*
X26783048Y672189D01*
X26628322Y734053D01*
X26491918Y812198D01*
X26426996Y859905D01*
X26304624Y974740D01*
X26204030Y1106496D01*
X26125852Y1254050D01*
X26070731Y1416282D01*
X26048454Y1523506D01*
X26041280Y1591013D01*
X26038018Y1673904D01*
X26038426Y1764082D01*
X26042264Y1853451D01*
X26049291Y1933914D01*
X26059265Y1997374D01*
X26063004Y2012637D01*
X26123181Y2184210D01*
X26202965Y2336157D01*
X26302755Y2468911D01*
X26422952Y2582907D01*
X26563956Y2678576D01*
X26726169Y2756352D01*
X26764497Y2771015D01*
X26809179Y2787141D01*
X26846055Y2798975D01*
X26880697Y2807196D01*
X26918677Y2812486D01*
X26965566Y2815527D01*
X27026937Y2816997D01*
X27108360Y2817580D01*
X27146609Y2817712D01*
X27250059Y2817468D01*
G37*
%TO.C,R6*%
X70137258Y14127500D02*
X69662742Y14127500D01*
X70137258Y15172500D02*
X69662742Y15172500D01*
%TO.C,R12*%
X70137258Y4877500D02*
X69662742Y4877500D01*
X70137258Y5922500D02*
X69662742Y5922500D01*
%TO.C,C10*%
X2907836Y15640000D02*
X2692164Y15640000D01*
X2907836Y16360000D02*
X2692164Y16360000D01*
%TO.C,C17*%
X8640000Y8257836D02*
X8640000Y8042164D01*
X7920000Y8257836D02*
X7920000Y8042164D01*
%TO.C,C4*%
X8342164Y2460000D02*
X8557836Y2460000D01*
X8342164Y1740000D02*
X8557836Y1740000D01*
%TO.C,R9*%
X69662742Y18272500D02*
X70137258Y18272500D01*
X69662742Y17227500D02*
X70137258Y17227500D01*
%TO.C,U3*%
X2180000Y10590000D02*
X2180000Y13590000D01*
X-20000Y12190000D02*
X-20000Y13590000D01*
D13*
X15901Y10690000D02*
G75*
G03*
X15901Y10690000I-85901J0D01*
G01*
D12*
%TO.C,C18*%
X7492164Y19360000D02*
X7707836Y19360000D01*
X7492164Y18640000D02*
X7707836Y18640000D01*
%TD*%
M02*
