%TF.GenerationSoftware,KiCad,Pcbnew,(7.0.0-40-g49f6a63a06)*%
%TF.CreationDate,2023-02-16T00:57:38+00:00*%
%TF.ProjectId,OPSX,4f505358-2e6b-4696-9361-645f70636258,rev?*%
%TF.SameCoordinates,PX6578900PY6a86820*%
%TF.FileFunction,Copper,L2,Bot*%
%TF.FilePolarity,Positive*%
%FSLAX46Y46*%
G04 Gerber Fmt 4.6, Leading zero omitted, Abs format (unit mm)*
G04 Created by KiCad (PCBNEW (7.0.0-40-g49f6a63a06)) date 2023-02-16 00:57:38*
%MOMM*%
%LPD*%
G01*
G04 APERTURE LIST*
%TA.AperFunction,ComponentPad*%
%ADD10C,0.600000*%
%TD*%
%TA.AperFunction,SMDPad,CuDef*%
%ADD11R,0.500000X1.600000*%
%TD*%
%TA.AperFunction,ComponentPad*%
%ADD12R,1.000000X1.000000*%
%TD*%
%TA.AperFunction,ComponentPad*%
%ADD13O,1.000000X1.000000*%
%TD*%
%TA.AperFunction,SMDPad,CuDef*%
%ADD14R,0.475000X0.300000*%
%TD*%
%TA.AperFunction,SMDPad,CuDef*%
%ADD15R,0.650000X1.350000*%
%TD*%
%TA.AperFunction,ViaPad*%
%ADD16C,0.800000*%
%TD*%
%TA.AperFunction,Conductor*%
%ADD17C,0.200000*%
%TD*%
%TA.AperFunction,Conductor*%
%ADD18C,0.800000*%
%TD*%
%TA.AperFunction,Conductor*%
%ADD19C,0.600000*%
%TD*%
G04 APERTURE END LIST*
D10*
%TO.P,U2,57,GND*%
%TO.N,GND*%
X6905000Y12525000D03*
X8180000Y12525000D03*
X9455000Y12525000D03*
X6905000Y13800000D03*
X8180000Y13800000D03*
X9455000Y13800000D03*
X6905000Y15075000D03*
X8180000Y15075000D03*
X9455000Y15075000D03*
%TD*%
%TO.P,U4,7,PAD*%
%TO.N,GND*%
X8200000Y4350000D03*
D11*
X8199999Y3899999D03*
D10*
X8200000Y3450000D03*
%TD*%
D12*
%TO.P,J1,1,Pin_1*%
%TO.N,VBUS*%
X3792499Y22749999D03*
D13*
%TO.P,J1,2,Pin_2*%
%TO.N,/USB_D-*%
X2522499Y22749999D03*
%TO.P,J1,3,Pin_3*%
%TO.N,/USB_D+*%
X1252499Y22749999D03*
%TO.P,J1,4,Pin_4*%
%TO.N,GND*%
X-17499Y22749999D03*
%TD*%
D14*
%TO.P,U5,1,VCC*%
%TO.N,+3V3*%
X9684999Y17339999D03*
%TO.P,U5,2,GND*%
%TO.N,GND*%
X9684999Y17989999D03*
%TO.P,U5,3,AD*%
X9684999Y18689999D03*
%TO.P,U5,4,INT*%
%TO.N,Net-(R18-Pad1)*%
X11434999Y18714999D03*
%TO.P,U5,5,SCL*%
%TO.N,/GPIO11*%
X11434999Y18014999D03*
%TO.P,U5,6,SDA*%
%TO.N,/GPIO10*%
X11434999Y17364999D03*
D15*
%TO.P,U5,7,EP*%
%TO.N,GND*%
X10559999Y17989999D03*
%TD*%
D16*
%TO.N,GND*%
X13300000Y20400000D03*
X88500000Y11100002D03*
X74800000Y21800000D03*
X9300000Y19900000D03*
X55800000Y14000000D03*
X19000000Y20400000D03*
X79000000Y15800000D03*
X62500000Y11900000D03*
X19000000Y23300000D03*
X84300000Y7600000D03*
X88500000Y15200000D03*
X5800000Y20800000D03*
X-3900000Y5800000D03*
X15100000Y6500000D03*
X62500000Y14000000D03*
X88500000Y13833334D03*
X72800000Y18600000D03*
X62500000Y20100000D03*
X12900000Y3500000D03*
X58100000Y20100000D03*
X-3900000Y15100000D03*
X17100000Y20400000D03*
X66900000Y20100000D03*
X60300000Y20100000D03*
X19000000Y21900000D03*
X74300000Y15800000D03*
X64700000Y20100000D03*
X17150000Y13900000D03*
X15100000Y2000000D03*
X-3900000Y7300000D03*
X17150000Y12700000D03*
X-800000Y2400000D03*
X88500000Y9733336D03*
X4600000Y20800000D03*
X74800000Y18600000D03*
X1200000Y4200000D03*
X60300000Y11900000D03*
X80700000Y15800000D03*
X53500000Y20100000D03*
X9300000Y21300000D03*
X55800000Y5800000D03*
X85100000Y4800000D03*
X15100000Y20400000D03*
X-3900000Y8800000D03*
X17150000Y15100000D03*
X14000000Y5000000D03*
X83100000Y5000000D03*
X14000000Y2000000D03*
X62500000Y5800000D03*
X14000000Y3500000D03*
X83200000Y7900000D03*
X-3900000Y16400000D03*
X74800000Y20200000D03*
X53500000Y5800000D03*
X72800000Y20200000D03*
X1500000Y8350000D03*
X64700000Y5800000D03*
X72800000Y15800000D03*
X2700000Y10900000D03*
X7500000Y6600000D03*
X4500000Y10000000D03*
X60300000Y14000000D03*
X15100000Y3500000D03*
X75800000Y15800000D03*
X72800000Y21800000D03*
X60300000Y5800000D03*
X88500000Y16566666D03*
X12900000Y5000000D03*
X58100000Y14000000D03*
X15100000Y5000000D03*
X200000Y5350000D03*
X12900000Y2000000D03*
X-3900000Y10300000D03*
X84100000Y5000000D03*
X58100000Y11900000D03*
X6500000Y6600000D03*
X8500000Y6600000D03*
X55800000Y20100000D03*
X88500000Y8366666D03*
X58100000Y5800000D03*
X17150000Y11500000D03*
X88500000Y12466668D03*
X66900000Y5800000D03*
X55800000Y11900000D03*
X77300000Y15800000D03*
%TO.N,+3V3*%
X8700000Y22500000D03*
X10581165Y13700500D03*
X7950000Y21750000D03*
X7280000Y8749500D03*
X8250000Y8750000D03*
X8084177Y19001629D03*
X5659260Y16254417D03*
X-700500Y13575000D03*
X3500000Y14100500D03*
%TO.N,+6V*%
X66300000Y3100000D03*
X1650000Y1700000D03*
X12900000Y500000D03*
X67600000Y3100000D03*
X79560000Y10400000D03*
X14000000Y500000D03*
X76440000Y11800000D03*
X10700000Y-600000D03*
X11800000Y500000D03*
X68800000Y3100000D03*
X78000000Y11800000D03*
X15100000Y500000D03*
X73320000Y11800000D03*
X4850000Y19500000D03*
X74880000Y11800000D03*
X12900000Y-600000D03*
X14000000Y-600000D03*
X66300000Y2200000D03*
X9600000Y-600000D03*
X73320000Y10400000D03*
X78000000Y10400000D03*
X79560000Y11800000D03*
X2400000Y1000000D03*
X68800000Y2200000D03*
X15100000Y-600000D03*
X76440000Y10400000D03*
X67600000Y2200000D03*
X74880000Y10400000D03*
X81120000Y10400000D03*
X81120000Y11800000D03*
X11800000Y-600000D03*
X3950000Y19500000D03*
%TO.N,Net-(R18-Pad1)*%
X12700000Y8400000D03*
%TO.N,/GPIO4*%
X13950000Y8050000D03*
X7600000Y11500000D03*
%TO.N,/GPIO10*%
X9700000Y8425000D03*
%TO.N,/GPIO11*%
X11200000Y8400000D03*
%TD*%
D17*
%TO.N,+3V3*%
X-175000Y14100500D02*
X-700500Y13575000D01*
D18*
X10650000Y11150000D02*
X10650000Y16000000D01*
D17*
X9685000Y17340000D02*
X9685000Y16485000D01*
X9247500Y17340000D02*
X9685000Y17340000D01*
X9685000Y16485000D02*
X9500000Y16300000D01*
X8084177Y19001629D02*
X8084177Y18503323D01*
D18*
X7280500Y8750000D02*
X7280000Y8749500D01*
D17*
X3500000Y14100500D02*
X-175000Y14100500D01*
D18*
X8250000Y8750000D02*
X10650000Y11150000D01*
X10350000Y16300000D02*
X9500000Y16300000D01*
X8700000Y22500000D02*
X7950000Y21750000D01*
D17*
X8084177Y18503323D02*
X9247500Y17340000D01*
D18*
X9500000Y16300000D02*
X7100000Y16300000D01*
X7100000Y16300000D02*
X5699500Y16300000D01*
X10650000Y16000000D02*
X10350000Y16300000D01*
X5699500Y16300000D02*
X3500000Y14100500D01*
X7100000Y20900000D02*
X7950000Y21750000D01*
X7100000Y16300000D02*
X7100000Y20900000D01*
X8250000Y8750000D02*
X7280500Y8750000D01*
D19*
%TO.N,+6V*%
X1650000Y1700000D02*
X1700000Y1700000D01*
X1700000Y1700000D02*
X2400000Y1000000D01*
X1450000Y19500000D02*
X3950000Y19500000D01*
X-1600000Y4950000D02*
X-1600000Y16450000D01*
X3950000Y19500000D02*
X4850000Y19500000D01*
X-1600000Y16450000D02*
X1450000Y19500000D01*
X1650000Y1700000D02*
X-1600000Y4950000D01*
D17*
%TO.N,Net-(R18-Pad1)*%
X12700000Y8400000D02*
X12700000Y17887500D01*
X11872500Y18715000D02*
X11435000Y18715000D01*
X12700000Y17887500D02*
X11872500Y18715000D01*
%TO.N,/GPIO4*%
X6580489Y10480489D02*
X7600000Y11500000D01*
X6580489Y8459752D02*
X6580489Y10480489D01*
X13400000Y7500000D02*
X7540241Y7500000D01*
X13950000Y8050000D02*
X13400000Y7500000D01*
X7540241Y7500000D02*
X6580489Y8459752D01*
%TO.N,/GPIO10*%
X9700000Y8425000D02*
X11435000Y10160000D01*
X11435000Y10160000D02*
X11435000Y17365000D01*
%TO.N,/GPIO11*%
X11972011Y9172011D02*
X11972011Y17727989D01*
X11685000Y18015000D02*
X11435000Y18015000D01*
X11200000Y8400000D02*
X11972011Y9172011D01*
X11972011Y17727989D02*
X11685000Y18015000D01*
%TD*%
%TA.AperFunction,Conductor*%
%TO.N,GND*%
G36*
X9050412Y8606176D02*
G01*
X9093936Y8564054D01*
X9104779Y8504464D01*
X9100654Y8473129D01*
X9094318Y8425000D01*
X9095165Y8418566D01*
X9114108Y8274674D01*
X9114109Y8274669D01*
X9114956Y8268238D01*
X9117439Y8262242D01*
X9117440Y8262241D01*
X9165934Y8145165D01*
X9175464Y8122159D01*
X9271718Y7996718D01*
X9276871Y7992764D01*
X9296057Y7978042D01*
X9330527Y7928238D01*
X9329536Y7867677D01*
X9293455Y7819028D01*
X9235790Y7800500D01*
X7705720Y7800500D01*
X7667834Y7808036D01*
X7635716Y7829496D01*
X7484716Y7980496D01*
X7457622Y8031186D01*
X7463256Y8088386D01*
X7499719Y8132815D01*
X7554720Y8149500D01*
X8204151Y8149500D01*
X8217072Y8148654D01*
X8250000Y8144318D01*
X8406762Y8164956D01*
X8552841Y8225464D01*
X8570569Y8239067D01*
X8678282Y8321718D01*
X8698505Y8348076D01*
X8707028Y8357795D01*
X8936624Y8587391D01*
X8990499Y8615063D01*
X9050412Y8606176D01*
G37*
%TD.AperFunction*%
%TA.AperFunction,Conductor*%
G36*
X11073386Y10637722D02*
G01*
X11117815Y10601259D01*
X11134500Y10546258D01*
X11134500Y10325479D01*
X11126964Y10287593D01*
X11105504Y10255475D01*
X9894208Y9044181D01*
X9856027Y9020439D01*
X9811282Y9016032D01*
X9706434Y9029835D01*
X9700000Y9030682D01*
X9693566Y9029835D01*
X9693565Y9029835D01*
X9620536Y9020221D01*
X9560946Y9031064D01*
X9518824Y9074588D01*
X9509937Y9134501D01*
X9537609Y9188376D01*
X10965496Y10616263D01*
X11016186Y10643356D01*
X11073386Y10637722D01*
G37*
%TD.AperFunction*%
%TA.AperFunction,Conductor*%
G36*
X65810746Y26187969D02*
G01*
X65841968Y26168283D01*
X66605629Y25456759D01*
X66605667Y25456667D01*
X66605775Y25456623D01*
X66605781Y25456617D01*
X66605863Y25456587D01*
X66605951Y25456550D01*
X66605960Y25456550D01*
X66606069Y25456509D01*
X66606159Y25456550D01*
X83536150Y25456550D01*
X83585650Y25443287D01*
X83621887Y25407050D01*
X83635150Y25357550D01*
X83635150Y22592850D01*
X83635150Y22592350D01*
X83635147Y22456117D01*
X83635569Y22452906D01*
X83635570Y22452901D01*
X83670280Y22189205D01*
X83670281Y22189196D01*
X83670705Y22185981D01*
X83671542Y22182855D01*
X83671545Y22182843D01*
X83740383Y21925921D01*
X83741220Y21922798D01*
X83742455Y21919815D01*
X83742458Y21919808D01*
X83844242Y21674073D01*
X83844245Y21674066D01*
X83845486Y21671071D01*
X83847106Y21668265D01*
X83847109Y21668259D01*
X83910483Y21558491D01*
X83981717Y21435108D01*
X83983686Y21432542D01*
X83983690Y21432536D01*
X84067637Y21323134D01*
X84147583Y21218945D01*
X84340245Y21026283D01*
X84447293Y20944143D01*
X84547733Y20867073D01*
X84556408Y20860417D01*
X84792371Y20724186D01*
X85044098Y20619920D01*
X85307281Y20549405D01*
X85577417Y20513847D01*
X85713650Y20513850D01*
X85714150Y20513850D01*
X89872250Y20513850D01*
X89921750Y20500587D01*
X89957987Y20464350D01*
X89971250Y20414850D01*
X89971250Y4122450D01*
X89957987Y4072950D01*
X89921750Y4036713D01*
X89872250Y4023450D01*
X82404500Y4023450D01*
X82355000Y4036713D01*
X82318763Y4072950D01*
X82305500Y4122450D01*
X82305500Y12397759D01*
X82305500Y12401000D01*
X82298498Y12454185D01*
X82285235Y12503685D01*
X82264706Y12553249D01*
X82232047Y12595810D01*
X82195810Y12632047D01*
X82185813Y12639718D01*
X82158402Y12660752D01*
X82158401Y12660753D01*
X82153249Y12664706D01*
X82132435Y12673327D01*
X82106677Y12683996D01*
X82106673Y12683998D01*
X82103685Y12685235D01*
X82100559Y12686073D01*
X82100555Y12686074D01*
X82057315Y12697660D01*
X82057305Y12697662D01*
X82054185Y12698498D01*
X82050980Y12698920D01*
X82050970Y12698922D01*
X82004213Y12705077D01*
X82004212Y12705078D01*
X82001000Y12705500D01*
X72499000Y12705500D01*
X72495788Y12705078D01*
X72495786Y12705077D01*
X72449029Y12698922D01*
X72449016Y12698920D01*
X72445815Y12698498D01*
X72442697Y12697663D01*
X72442684Y12697660D01*
X72399444Y12686074D01*
X72399435Y12686072D01*
X72396315Y12685235D01*
X72393331Y12684000D01*
X72393322Y12683996D01*
X72352750Y12667191D01*
X72352748Y12667191D01*
X72346751Y12664706D01*
X72341601Y12660755D01*
X72341597Y12660752D01*
X72306765Y12634024D01*
X72306755Y12634016D01*
X72304190Y12632047D01*
X72301908Y12629766D01*
X72301900Y12629758D01*
X72270242Y12598100D01*
X72270234Y12598092D01*
X72267953Y12595810D01*
X72265984Y12593245D01*
X72265976Y12593235D01*
X72239248Y12558403D01*
X72239245Y12558399D01*
X72235294Y12553249D01*
X72232809Y12547252D01*
X72232809Y12547250D01*
X72216004Y12506678D01*
X72216000Y12506669D01*
X72214765Y12503685D01*
X72213928Y12500565D01*
X72213926Y12500556D01*
X72202340Y12457316D01*
X72202337Y12457303D01*
X72201502Y12454185D01*
X72201080Y12450984D01*
X72201078Y12450971D01*
X72197465Y12423522D01*
X72194500Y12401000D01*
X72194500Y12397759D01*
X72194500Y4904500D01*
X72181237Y4855000D01*
X72145000Y4818763D01*
X72095500Y4805500D01*
X59642674Y4805500D01*
X59640185Y4805246D01*
X59640167Y4805245D01*
X59603644Y4801516D01*
X59603625Y4801514D01*
X59601146Y4801260D01*
X59598695Y4800755D01*
X59598680Y4800752D01*
X59566896Y4794193D01*
X59561958Y4793174D01*
X59557337Y4791183D01*
X59557330Y4791180D01*
X59490309Y4762291D01*
X59490304Y4762289D01*
X59485682Y4760296D01*
X59481555Y4757409D01*
X59481552Y4757407D01*
X59454956Y4738800D01*
X59454946Y4738793D01*
X59452896Y4737358D01*
X59451004Y4735725D01*
X59450988Y4735712D01*
X59423217Y4711734D01*
X59423206Y4711724D01*
X59421299Y4710077D01*
X59419572Y4708250D01*
X59419560Y4708237D01*
X56140720Y1236524D01*
X56107934Y1213586D01*
X56068746Y1205500D01*
X8799000Y1205500D01*
X8795788Y1205078D01*
X8795786Y1205077D01*
X8749029Y1198922D01*
X8749016Y1198920D01*
X8745815Y1198498D01*
X8742697Y1197663D01*
X8742684Y1197660D01*
X8699444Y1186074D01*
X8699435Y1186072D01*
X8696315Y1185235D01*
X8693331Y1184000D01*
X8693322Y1183996D01*
X8652750Y1167191D01*
X8652748Y1167191D01*
X8646751Y1164706D01*
X8641601Y1160755D01*
X8641597Y1160752D01*
X8606765Y1134024D01*
X8606755Y1134016D01*
X8604190Y1132047D01*
X8601908Y1129766D01*
X8601900Y1129758D01*
X8570242Y1098100D01*
X8570234Y1098092D01*
X8567953Y1095810D01*
X8565984Y1093245D01*
X8565976Y1093235D01*
X8539248Y1058403D01*
X8539245Y1058399D01*
X8535294Y1053249D01*
X8532809Y1047252D01*
X8532809Y1047250D01*
X8516004Y1006678D01*
X8516000Y1006669D01*
X8514765Y1003685D01*
X8513928Y1000565D01*
X8513926Y1000556D01*
X8502340Y957316D01*
X8502337Y957303D01*
X8501502Y954185D01*
X8501080Y950984D01*
X8501078Y950971D01*
X8494923Y904214D01*
X8494500Y901000D01*
X8494500Y897759D01*
X8494500Y-1515850D01*
X8481237Y-1565350D01*
X8445000Y-1601587D01*
X8395500Y-1614850D01*
X-1645850Y-1614850D01*
X-1695350Y-1601587D01*
X-1731587Y-1565350D01*
X-1744850Y-1515850D01*
X-1744849Y1078460D01*
X-1744848Y1992349D01*
X-1744849Y1992350D01*
X-1744852Y2126056D01*
X-1779787Y2391378D01*
X-1849055Y2649871D01*
X-1951469Y2897111D01*
X-2085277Y3128869D01*
X-2248190Y3341180D01*
X-2437420Y3530410D01*
X-2439979Y3532374D01*
X-2439984Y3532378D01*
X-2647169Y3691357D01*
X-2649731Y3693323D01*
X-2652527Y3694938D01*
X-2652531Y3694940D01*
X-2878681Y3825510D01*
X-2878684Y3825512D01*
X-2881489Y3827131D01*
X-2884480Y3828370D01*
X-2884482Y3828371D01*
X-3125739Y3928307D01*
X-3125747Y3928310D01*
X-3128729Y3929545D01*
X-3131851Y3930382D01*
X-3131861Y3930385D01*
X-3384090Y3997974D01*
X-3384095Y3997975D01*
X-3387222Y3998813D01*
X-3407610Y4001498D01*
X-3649333Y4033326D01*
X-3649345Y4033327D01*
X-3652544Y4033748D01*
X-3655772Y4033749D01*
X-3655785Y4033749D01*
X-3786251Y4033752D01*
X-5812250Y4033752D01*
X-5861750Y4047015D01*
X-5897987Y4083252D01*
X-5911250Y4132752D01*
X-5911250Y4986073D01*
X-2104359Y4986073D01*
X-2103854Y4979012D01*
X-2103854Y4979010D01*
X-2100752Y4935644D01*
X-2100500Y4928581D01*
X-2100500Y4914201D01*
X-2100000Y4910717D01*
X-2099998Y4910701D01*
X-2098453Y4899958D01*
X-2097698Y4892937D01*
X-2094091Y4842517D01*
X-2091620Y4835889D01*
X-2091618Y4835884D01*
X-2091467Y4835480D01*
X-2086236Y4814986D01*
X-2086175Y4814557D01*
X-2086173Y4814548D01*
X-2085165Y4807543D01*
X-2082225Y4801104D01*
X-2082224Y4801103D01*
X-2064165Y4761559D01*
X-2061461Y4755030D01*
X-2046270Y4714300D01*
X-2046268Y4714296D01*
X-2043796Y4707669D01*
X-2039558Y4702008D01*
X-2039556Y4702004D01*
X-2039294Y4701655D01*
X-2028496Y4683456D01*
X-2025377Y4676627D01*
X-1992272Y4638422D01*
X-1987853Y4632938D01*
X-1979221Y4621407D01*
X-1976726Y4618912D01*
X-1969039Y4611225D01*
X-1964224Y4606052D01*
X-1931128Y4567857D01*
X-1924814Y4563799D01*
X-1908334Y4550520D01*
X1036039Y1606147D01*
X1054823Y1579935D01*
X1062128Y1555859D01*
X1062429Y1555939D01*
X1064109Y1549666D01*
X1064956Y1543238D01*
X1067435Y1537251D01*
X1067437Y1537247D01*
X1122980Y1403155D01*
X1125464Y1397159D01*
X1129413Y1392012D01*
X1129414Y1392011D01*
X1202436Y1296846D01*
X1221718Y1271718D01*
X1347159Y1175464D01*
X1493238Y1114956D01*
X1556644Y1106609D01*
X1587508Y1097247D01*
X1613726Y1078460D01*
X1786039Y906147D01*
X1804823Y879935D01*
X1812128Y855859D01*
X1812429Y855939D01*
X1814109Y849666D01*
X1814956Y843238D01*
X1817435Y837251D01*
X1817437Y837247D01*
X1872980Y703155D01*
X1875464Y697159D01*
X1879413Y692012D01*
X1879414Y692011D01*
X1953429Y595552D01*
X1971718Y571718D01*
X2097159Y475464D01*
X2243238Y414956D01*
X2400000Y394318D01*
X2556762Y414956D01*
X2702841Y475464D01*
X2828282Y571718D01*
X2924536Y697159D01*
X2985044Y843238D01*
X3005682Y1000000D01*
X2985044Y1156762D01*
X2924536Y1302841D01*
X2828282Y1428282D01*
X2702841Y1524536D01*
X2696847Y1527019D01*
X2696845Y1527020D01*
X2562753Y1582563D01*
X2562749Y1582565D01*
X2556762Y1585044D01*
X2550334Y1585891D01*
X2544061Y1587571D01*
X2544141Y1587872D01*
X2520065Y1595177D01*
X2493853Y1613961D01*
X2237647Y1870167D01*
X2216187Y1902286D01*
X2191550Y1961765D01*
X2174536Y2002841D01*
X2078282Y2128282D01*
X1986069Y2199039D01*
X1957989Y2220586D01*
X1957988Y2220587D01*
X1952841Y2224536D01*
X1946847Y2227019D01*
X1946845Y2227020D01*
X1812753Y2282563D01*
X1812749Y2282565D01*
X1806762Y2285044D01*
X1800334Y2285891D01*
X1794061Y2287571D01*
X1794141Y2287872D01*
X1770065Y2295177D01*
X1743853Y2313961D01*
X-1070504Y5128318D01*
X-1091964Y5160436D01*
X-1099500Y5198322D01*
X-1099500Y12942130D01*
X-1087810Y12988798D01*
X-1055502Y13024445D01*
X-1010204Y13040653D01*
X-962615Y13033594D01*
X-863263Y12992441D01*
X-863259Y12992440D01*
X-857262Y12989956D01*
X-700500Y12969318D01*
X-543738Y12989956D01*
X-397659Y13050464D01*
X-272218Y13146718D01*
X-175964Y13272159D01*
X-115456Y13418238D01*
X-94818Y13575000D01*
X-109469Y13686286D01*
X-105058Y13731043D01*
X-81301Y13769229D01*
X-79508Y13771023D01*
X-47395Y13792469D01*
X-9522Y13800000D01*
X2924846Y13800000D01*
X2968632Y13789790D01*
X3003387Y13761269D01*
X3071718Y13672218D01*
X3197159Y13575964D01*
X3343238Y13515456D01*
X3450134Y13501383D01*
X3468682Y13498941D01*
X3500000Y13494818D01*
X3656762Y13515456D01*
X3802841Y13575964D01*
X3819985Y13589119D01*
X3928282Y13672218D01*
X3948505Y13698576D01*
X3957028Y13708295D01*
X5919238Y15670504D01*
X5951357Y15691964D01*
X5989243Y15699500D01*
X7054151Y15699500D01*
X7067072Y15698654D01*
X7100000Y15694318D01*
X7132927Y15698654D01*
X7145849Y15699500D01*
X9460639Y15699500D01*
X9539361Y15699500D01*
X9950500Y15699500D01*
X10000000Y15686237D01*
X10036237Y15650000D01*
X10049500Y15600500D01*
X10049500Y14005823D01*
X10041964Y13967937D01*
X10010738Y13892550D01*
X9996121Y13857262D01*
X9995274Y13850834D01*
X9995273Y13850827D01*
X9982334Y13752541D01*
X9975483Y13700500D01*
X9976330Y13694066D01*
X9995273Y13550174D01*
X9995274Y13550169D01*
X9996121Y13543738D01*
X9998604Y13537742D01*
X9998605Y13537741D01*
X10041964Y13433063D01*
X10049500Y13395177D01*
X10049500Y11439743D01*
X10041964Y11401857D01*
X10020504Y11369739D01*
X8030261Y9379496D01*
X7998143Y9358036D01*
X7960257Y9350500D01*
X7326349Y9350500D01*
X7313427Y9351347D01*
X7280500Y9355682D01*
X7274066Y9354835D01*
X7241139Y9350500D01*
X7130173Y9335892D01*
X7130166Y9335891D01*
X7123738Y9335044D01*
X7117743Y9332561D01*
X7117740Y9332560D01*
X7017875Y9291194D01*
X6970285Y9284135D01*
X6924988Y9300342D01*
X6892679Y9335990D01*
X6880989Y9382658D01*
X6880989Y10315010D01*
X6888525Y10352896D01*
X6909985Y10385013D01*
X7405789Y10880819D01*
X7443970Y10904562D01*
X7488714Y10908969D01*
X7600000Y10894318D01*
X7756762Y10914956D01*
X7902841Y10975464D01*
X8028282Y11071718D01*
X8124536Y11197159D01*
X8185044Y11343238D01*
X8205682Y11500000D01*
X8185044Y11656762D01*
X8124536Y11802841D01*
X8028282Y11928282D01*
X7902841Y12024536D01*
X7896847Y12027019D01*
X7896845Y12027020D01*
X7762759Y12082560D01*
X7762758Y12082561D01*
X7756762Y12085044D01*
X7750331Y12085891D01*
X7750326Y12085892D01*
X7606434Y12104835D01*
X7600000Y12105682D01*
X7593566Y12104835D01*
X7449673Y12085892D01*
X7449666Y12085891D01*
X7443238Y12085044D01*
X7437243Y12082561D01*
X7437240Y12082560D01*
X7303154Y12027020D01*
X7303149Y12027018D01*
X7297159Y12024536D01*
X7292015Y12020589D01*
X7292010Y12020586D01*
X7176871Y11932237D01*
X7176866Y11932233D01*
X7171718Y11928282D01*
X7167767Y11923134D01*
X7167763Y11923129D01*
X7079414Y11807990D01*
X7079411Y11807985D01*
X7075464Y11802841D01*
X7072982Y11796851D01*
X7072980Y11796846D01*
X7017440Y11662760D01*
X7014956Y11656762D01*
X7014109Y11650334D01*
X7014108Y11650327D01*
X6996589Y11517250D01*
X6994318Y11500000D01*
X6995165Y11493566D01*
X7008968Y11388718D01*
X7004561Y11343973D01*
X6980819Y11305792D01*
X6405620Y10730593D01*
X6401630Y10727122D01*
X6396261Y10724447D01*
X6390084Y10717672D01*
X6390082Y10717670D01*
X6364630Y10689752D01*
X6361479Y10686452D01*
X6351552Y10676525D01*
X6351543Y10676515D01*
X6348315Y10673286D01*
X6345729Y10669514D01*
X6342810Y10665997D01*
X6342667Y10666116D01*
X6339746Y10662456D01*
X6326750Y10648199D01*
X6326748Y10648197D01*
X6320573Y10641422D01*
X6317261Y10632876D01*
X6317259Y10632871D01*
X6317018Y10632248D01*
X6306387Y10612080D01*
X6306019Y10611543D01*
X6306016Y10611539D01*
X6300833Y10603970D01*
X6298733Y10595043D01*
X6298731Y10595038D01*
X6294319Y10576282D01*
X6290266Y10563194D01*
X6283302Y10545218D01*
X6283300Y10545211D01*
X6279989Y10536662D01*
X6279989Y10527490D01*
X6279989Y10526837D01*
X6277359Y10504171D01*
X6277210Y10503539D01*
X6277209Y10503536D01*
X6275110Y10494608D01*
X6276376Y10485526D01*
X6276377Y10485526D01*
X6279040Y10466436D01*
X6279989Y10452758D01*
X6279989Y8512950D01*
X6279623Y8507678D01*
X6277716Y8501987D01*
X6278139Y8492825D01*
X6278139Y8492820D01*
X6279883Y8455110D01*
X6279989Y8450538D01*
X6279989Y8431908D01*
X6280831Y8427401D01*
X6281253Y8422853D01*
X6281055Y8422835D01*
X6281590Y8418176D01*
X6282480Y8398928D01*
X6282904Y8389760D01*
X6286874Y8380768D01*
X6293621Y8358980D01*
X6295428Y8349319D01*
X6300255Y8341522D01*
X6300256Y8341521D01*
X6310400Y8325137D01*
X6316789Y8313016D01*
X6328283Y8286987D01*
X6334767Y8280503D01*
X6335232Y8280038D01*
X6349397Y8262154D01*
X6354570Y8253800D01*
X6361892Y8248271D01*
X6377261Y8236665D01*
X6387605Y8227665D01*
X7290137Y7325133D01*
X7293608Y7321144D01*
X7296283Y7315772D01*
X7303059Y7309595D01*
X7330965Y7284155D01*
X7334272Y7280998D01*
X7347444Y7267826D01*
X7351214Y7265243D01*
X7354737Y7262318D01*
X7354603Y7262157D01*
X7358280Y7259254D01*
X7379308Y7240084D01*
X7388467Y7236536D01*
X7408657Y7225895D01*
X7416760Y7220344D01*
X7425688Y7218245D01*
X7425691Y7218243D01*
X7444448Y7213831D01*
X7457547Y7209775D01*
X7484068Y7199500D01*
X7493893Y7199500D01*
X7516559Y7196870D01*
X7516879Y7196796D01*
X7526122Y7194621D01*
X7554294Y7198552D01*
X7567972Y7199500D01*
X13346802Y7199500D01*
X13352074Y7199135D01*
X13357765Y7197227D01*
X13404641Y7199394D01*
X13409214Y7199500D01*
X13423265Y7199500D01*
X13427844Y7199500D01*
X13432344Y7200342D01*
X13436907Y7200765D01*
X13436926Y7200554D01*
X13441572Y7201102D01*
X13469992Y7202415D01*
X13478980Y7206385D01*
X13500778Y7213135D01*
X13510433Y7214939D01*
X13534617Y7229914D01*
X13546738Y7236302D01*
X13555303Y7240084D01*
X13572765Y7247794D01*
X13579713Y7254743D01*
X13597596Y7268908D01*
X13605952Y7274081D01*
X13623096Y7296785D01*
X13632082Y7307113D01*
X13755791Y7430822D01*
X13793971Y7454562D01*
X13838714Y7458969D01*
X13950000Y7444318D01*
X14106762Y7464956D01*
X14252841Y7525464D01*
X14378282Y7621718D01*
X14474536Y7747159D01*
X14535044Y7893238D01*
X14555682Y8050000D01*
X14535044Y8206762D01*
X14474536Y8352841D01*
X14378282Y8478282D01*
X14338550Y8508769D01*
X14257989Y8570586D01*
X14257988Y8570587D01*
X14252841Y8574536D01*
X14246847Y8577019D01*
X14246845Y8577020D01*
X14112759Y8632560D01*
X14112758Y8632561D01*
X14106762Y8635044D01*
X14100331Y8635891D01*
X14100326Y8635892D01*
X13956434Y8654835D01*
X13950000Y8655682D01*
X13943566Y8654835D01*
X13799673Y8635892D01*
X13799666Y8635891D01*
X13793238Y8635044D01*
X13787243Y8632561D01*
X13787240Y8632560D01*
X13653154Y8577020D01*
X13653149Y8577018D01*
X13647159Y8574536D01*
X13642015Y8570589D01*
X13642010Y8570586D01*
X13526871Y8482237D01*
X13526866Y8482233D01*
X13521718Y8478282D01*
X13517767Y8473134D01*
X13517766Y8473132D01*
X13474021Y8416122D01*
X13427301Y8382644D01*
X13369855Y8380763D01*
X13321047Y8411115D01*
X13297326Y8463468D01*
X13292612Y8499273D01*
X13285044Y8556762D01*
X13224536Y8702841D01*
X13128282Y8828282D01*
X13039231Y8896613D01*
X13010710Y8931368D01*
X13000500Y8975154D01*
X13000500Y12933513D01*
X24602979Y12933513D01*
X24603127Y12930295D01*
X24603127Y12930293D01*
X24615730Y12656272D01*
X24615889Y12652828D01*
X24616454Y12649652D01*
X24616455Y12649644D01*
X24664543Y12379357D01*
X24664544Y12379350D01*
X24665107Y12376190D01*
X24666073Y12373132D01*
X24666074Y12373131D01*
X24747689Y12114956D01*
X24749801Y12108277D01*
X24751158Y12105367D01*
X24751161Y12105359D01*
X24867178Y11856537D01*
X24867181Y11856531D01*
X24868540Y11853617D01*
X24870262Y11850908D01*
X24870266Y11850902D01*
X25016129Y11621527D01*
X25019316Y11616515D01*
X25021381Y11614045D01*
X25021384Y11614042D01*
X25190650Y11411656D01*
X25199580Y11400979D01*
X25302927Y11305899D01*
X25302952Y11305862D01*
X25302996Y11305833D01*
X25303338Y11305519D01*
X25303389Y11305575D01*
X25309702Y11301425D01*
X25309707Y11301421D01*
X33957158Y5616252D01*
X33957138Y5616223D01*
X33957926Y5615808D01*
X34187693Y5462659D01*
X34193961Y5459049D01*
X34666571Y5186852D01*
X34666581Y5186847D01*
X34667966Y5186049D01*
X35165260Y4941356D01*
X35677457Y4729625D01*
X36202374Y4551757D01*
X36737776Y4408509D01*
X37281382Y4300491D01*
X37830877Y4228165D01*
X38383919Y4191837D01*
X38938153Y4191663D01*
X39491218Y4227644D01*
X40040758Y4299625D01*
X40584432Y4407301D01*
X41119924Y4550213D01*
X41644952Y4727752D01*
X42157282Y4939162D01*
X42654729Y5183542D01*
X43135176Y5459851D01*
X43365778Y5613345D01*
X52009668Y11314198D01*
X52009717Y11314144D01*
X52010059Y11314455D01*
X52010108Y11314487D01*
X52010281Y11314741D01*
X52114011Y11409185D01*
X52295493Y11623990D01*
X52447473Y11860589D01*
X52567365Y12114956D01*
X52653130Y12382765D01*
X52703309Y12659458D01*
X52717048Y12940328D01*
X52701538Y13129850D01*
X64879480Y13129850D01*
X64880022Y13124693D01*
X64899163Y12942572D01*
X64899164Y12942565D01*
X64899706Y12937413D01*
X64901307Y12932484D01*
X64901308Y12932482D01*
X64929603Y12845400D01*
X64959500Y12753387D01*
X65056248Y12585814D01*
X65185723Y12442017D01*
X65189913Y12438973D01*
X65189915Y12438971D01*
X65242178Y12401000D01*
X65342265Y12328283D01*
X65519033Y12249581D01*
X65708302Y12209350D01*
X65896610Y12209350D01*
X65901798Y12209350D01*
X66091067Y12249581D01*
X66267835Y12328283D01*
X66424377Y12442017D01*
X66553852Y12585814D01*
X66650600Y12753387D01*
X66710394Y12937413D01*
X66730620Y13129850D01*
X66710394Y13322287D01*
X66650600Y13506313D01*
X66553852Y13673886D01*
X66424377Y13817683D01*
X66420187Y13820727D01*
X66420184Y13820730D01*
X66272025Y13928373D01*
X66272023Y13928374D01*
X66267835Y13931417D01*
X66263103Y13933524D01*
X66263101Y13933525D01*
X66095806Y14008009D01*
X66091067Y14010119D01*
X66086000Y14011197D01*
X66085994Y14011198D01*
X65906870Y14049272D01*
X65906869Y14049273D01*
X65901798Y14050350D01*
X65708302Y14050350D01*
X65703231Y14049273D01*
X65703229Y14049272D01*
X65524105Y14011198D01*
X65524097Y14011196D01*
X65519033Y14010119D01*
X65514296Y14008011D01*
X65514293Y14008009D01*
X65346998Y13933525D01*
X65346992Y13933522D01*
X65342265Y13931417D01*
X65338080Y13928377D01*
X65338074Y13928373D01*
X65189915Y13820730D01*
X65189907Y13820724D01*
X65185723Y13817683D01*
X65182256Y13813834D01*
X65182253Y13813830D01*
X65059720Y13677743D01*
X65059716Y13677739D01*
X65056248Y13673886D01*
X65053658Y13669401D01*
X65053655Y13669396D01*
X64962092Y13510803D01*
X64959500Y13506313D01*
X64957898Y13501385D01*
X64957898Y13501383D01*
X64901308Y13327219D01*
X64901307Y13327215D01*
X64899706Y13322287D01*
X64899164Y13317138D01*
X64899163Y13317129D01*
X64883166Y13164924D01*
X64879480Y13129850D01*
X52701538Y13129850D01*
X52694112Y13220597D01*
X52634894Y13495498D01*
X52540399Y13760352D01*
X52516537Y13806954D01*
X52413711Y14007774D01*
X52413708Y14007779D01*
X52412236Y14010654D01*
X52252585Y14242145D01*
X52064162Y14450889D01*
X52061706Y14452982D01*
X52061699Y14452989D01*
X51957204Y14542044D01*
X51957204Y14542045D01*
X51957189Y14542067D01*
X51957129Y14542108D01*
X51956824Y14542368D01*
X51957087Y14542675D01*
X51956988Y14542746D01*
X51956736Y14542376D01*
X47412285Y17642250D01*
X85513109Y17642250D01*
X85513150Y17642151D01*
X85513267Y17641867D01*
X85513650Y17641709D01*
X85513749Y17641750D01*
X87563551Y17641750D01*
X87563650Y17641709D01*
X87564033Y17641867D01*
X87564150Y17642151D01*
X87564191Y17642250D01*
X87564150Y17642349D01*
X87564150Y18842151D01*
X87564191Y18842250D01*
X87564033Y18842633D01*
X87563749Y18842750D01*
X87563650Y18842791D01*
X87563551Y18842750D01*
X85513749Y18842750D01*
X85513650Y18842791D01*
X85513551Y18842750D01*
X85513267Y18842633D01*
X85513109Y18842250D01*
X85513150Y18842151D01*
X85513150Y17642349D01*
X85513109Y17642250D01*
X47412285Y17642250D01*
X47338984Y17692250D01*
X80788109Y17692250D01*
X80788150Y17692151D01*
X80788267Y17691867D01*
X80788650Y17691709D01*
X80788749Y17691750D01*
X82838551Y17691750D01*
X82838650Y17691709D01*
X82839033Y17691867D01*
X82839150Y17692151D01*
X82839191Y17692250D01*
X82839150Y17692349D01*
X82839150Y18892151D01*
X82839191Y18892250D01*
X82839033Y18892633D01*
X82838749Y18892750D01*
X82838650Y18892791D01*
X82838551Y18892750D01*
X80788749Y18892750D01*
X80788650Y18892791D01*
X80788551Y18892750D01*
X80788267Y18892633D01*
X80788109Y18892250D01*
X80788150Y18892151D01*
X80788150Y17692349D01*
X80788109Y17692250D01*
X47338984Y17692250D01*
X45872973Y18692250D01*
X77813109Y18692250D01*
X77813150Y18692151D01*
X77813267Y18691867D01*
X77813650Y18691709D01*
X77813749Y18691750D01*
X79013551Y18691750D01*
X79013650Y18691709D01*
X79014033Y18691867D01*
X79014150Y18692151D01*
X79014191Y18692250D01*
X79014150Y18692349D01*
X79014150Y20692151D01*
X79014191Y20692250D01*
X79014033Y20692633D01*
X79013749Y20692750D01*
X79013650Y20692791D01*
X79013551Y20692750D01*
X77813749Y20692750D01*
X77813650Y20692791D01*
X77813551Y20692750D01*
X77813267Y20692633D01*
X77813109Y20692250D01*
X77813150Y20692151D01*
X77813150Y18692349D01*
X77813109Y18692250D01*
X45872973Y18692250D01*
X43414340Y20369340D01*
X43414343Y20369344D01*
X43414342Y20369345D01*
X43416696Y20372795D01*
X43416547Y20372887D01*
X43414229Y20369420D01*
X43413926Y20369622D01*
X43413943Y20369644D01*
X43206594Y20507864D01*
X43073626Y20585629D01*
X42777617Y20758747D01*
X42777611Y20758750D01*
X42776377Y20759472D01*
X42499999Y20900000D01*
X42333394Y20984713D01*
X42333385Y20984717D01*
X42332117Y20985362D01*
X42016083Y21123321D01*
X41876694Y21184169D01*
X41876686Y21184173D01*
X41875351Y21184755D01*
X41873997Y21185254D01*
X41873981Y21185260D01*
X41409012Y21356461D01*
X41409003Y21356464D01*
X41407656Y21356960D01*
X41406270Y21357380D01*
X41406260Y21357383D01*
X40932035Y21500964D01*
X40932014Y21500970D01*
X40930649Y21501383D01*
X40929257Y21501717D01*
X40929237Y21501722D01*
X40447387Y21617188D01*
X40447381Y21617190D01*
X40445980Y21617525D01*
X40444571Y21617777D01*
X40444567Y21617777D01*
X39956761Y21704727D01*
X39956750Y21704729D01*
X39955323Y21704983D01*
X39953875Y21705155D01*
X39953862Y21705156D01*
X39461834Y21763284D01*
X39461821Y21763286D01*
X39460375Y21763456D01*
X39458944Y21763541D01*
X39458913Y21763543D01*
X38964289Y21792657D01*
X38962845Y21792742D01*
X38961429Y21792743D01*
X38961397Y21792743D01*
X38714150Y21792750D01*
X38713650Y21792750D01*
X38713150Y21792750D01*
X38713150Y21792735D01*
X38713044Y21792721D01*
X38465903Y21792714D01*
X38465870Y21792714D01*
X38464456Y21792713D01*
X38463012Y21792629D01*
X38463011Y21792628D01*
X37968389Y21763514D01*
X37968355Y21763512D01*
X37966928Y21763427D01*
X37965484Y21763257D01*
X37965468Y21763255D01*
X37473441Y21705127D01*
X37473423Y21705125D01*
X37471981Y21704954D01*
X37470558Y21704701D01*
X37470542Y21704698D01*
X36982738Y21617748D01*
X36982727Y21617746D01*
X36981326Y21617496D01*
X36979930Y21617162D01*
X36979918Y21617159D01*
X36498069Y21501694D01*
X36498040Y21501687D01*
X36496658Y21501355D01*
X36495300Y21500944D01*
X36495271Y21500936D01*
X36021048Y21357356D01*
X36021028Y21357350D01*
X36019653Y21356933D01*
X36018315Y21356441D01*
X36018296Y21356434D01*
X35553329Y21185233D01*
X35553301Y21185222D01*
X35551960Y21184728D01*
X35550636Y21184151D01*
X35550616Y21184142D01*
X35096540Y20985924D01*
X35096515Y20985913D01*
X35095195Y20985336D01*
X35093897Y20984677D01*
X35093880Y20984668D01*
X34652250Y20760115D01*
X34652213Y20760095D01*
X34650937Y20759446D01*
X34649700Y20758723D01*
X34649666Y20758704D01*
X34221980Y20508577D01*
X34221962Y20508567D01*
X34220721Y20507840D01*
X34219528Y20507045D01*
X34219506Y20507031D01*
X34013457Y20369677D01*
X34012218Y20371536D01*
X34012077Y20371399D01*
X34013296Y20369570D01*
X34012956Y20369345D01*
X34011779Y20371111D01*
X34011770Y20371103D01*
X34012956Y20369345D01*
X34012956Y20369344D01*
X34012957Y20369344D01*
X34012958Y20369342D01*
X25365019Y14533540D01*
X25364727Y14533972D01*
X25364680Y14533939D01*
X25364985Y14533580D01*
X25364630Y14533278D01*
X25364567Y14533234D01*
X25364275Y14533652D01*
X25364210Y14533606D01*
X25364549Y14533208D01*
X25260118Y14444247D01*
X25260106Y14444236D01*
X25257658Y14442150D01*
X25255495Y14439757D01*
X25255491Y14439752D01*
X25071460Y14236052D01*
X25071449Y14236039D01*
X25069296Y14233655D01*
X25067466Y14231007D01*
X25067461Y14231000D01*
X24911406Y14005131D01*
X24911398Y14005118D01*
X24909577Y14002482D01*
X24908111Y13999630D01*
X24908105Y13999618D01*
X24782678Y13755416D01*
X24782674Y13755408D01*
X24781202Y13752541D01*
X24780115Y13749512D01*
X24780110Y13749499D01*
X24687431Y13491100D01*
X24686340Y13488057D01*
X24685654Y13484905D01*
X24685653Y13484901D01*
X24627279Y13216644D01*
X24627276Y13216628D01*
X24626596Y13213500D01*
X24626327Y13210315D01*
X24626325Y13210299D01*
X24603249Y12936721D01*
X24603248Y12936712D01*
X24602979Y12933513D01*
X13000500Y12933513D01*
X13000500Y17834301D01*
X13000865Y17839574D01*
X13002773Y17845264D01*
X13000606Y17892141D01*
X13000500Y17896713D01*
X13000500Y17910763D01*
X13000500Y17915344D01*
X12999657Y17919849D01*
X12999235Y17924404D01*
X12999446Y17924424D01*
X12998898Y17929069D01*
X12997585Y17957491D01*
X12993618Y17966475D01*
X12986864Y17988286D01*
X12985061Y17997933D01*
X12980233Y18005730D01*
X12980232Y18005734D01*
X12970086Y18022120D01*
X12963693Y18034248D01*
X12952206Y18060265D01*
X12945257Y18067214D01*
X12931089Y18085102D01*
X12930748Y18085652D01*
X12925919Y18093452D01*
X12918599Y18098980D01*
X12918598Y18098981D01*
X12903222Y18110592D01*
X12892879Y18119592D01*
X12122602Y18889869D01*
X12119132Y18893857D01*
X12116458Y18899228D01*
X12100134Y18914109D01*
X12081774Y18930847D01*
X12078466Y18934005D01*
X12068529Y18943942D01*
X12065297Y18947174D01*
X12061523Y18949760D01*
X12058005Y18952681D01*
X12058133Y18952836D01*
X12054461Y18955747D01*
X12033433Y18974916D01*
X12024880Y18978230D01*
X12024878Y18978231D01*
X12024265Y18978468D01*
X12004086Y18989105D01*
X12003552Y18989471D01*
X12003547Y18989473D01*
X11995981Y18994656D01*
X11987053Y18996756D01*
X11987051Y18996757D01*
X11968296Y19001168D01*
X11955203Y19005223D01*
X11937226Y19012187D01*
X11937223Y19012188D01*
X11928673Y19015500D01*
X11919502Y19015500D01*
X11918848Y19015500D01*
X11896182Y19018130D01*
X11895549Y19018279D01*
X11895546Y19018280D01*
X11886619Y19020379D01*
X11877536Y19019112D01*
X11858447Y19016449D01*
X11844769Y19015500D01*
X11838182Y19015500D01*
X11783180Y19032185D01*
X11758840Y19048449D01*
X11758838Y19048450D01*
X11750731Y19053867D01*
X11741167Y19055770D01*
X11741166Y19055770D01*
X11697011Y19064553D01*
X11697006Y19064554D01*
X11692248Y19065500D01*
X11177752Y19065500D01*
X11172994Y19064554D01*
X11172988Y19064553D01*
X11128833Y19055770D01*
X11128830Y19055769D01*
X11119269Y19053867D01*
X11111163Y19048451D01*
X11111159Y19048449D01*
X11061058Y19014972D01*
X11061055Y19014970D01*
X11052948Y19009552D01*
X11047530Y19001445D01*
X11047528Y19001442D01*
X11014051Y18951341D01*
X11014049Y18951337D01*
X11008633Y18943231D01*
X11006731Y18933670D01*
X11006730Y18933667D01*
X10997947Y18889512D01*
X10997946Y18889506D01*
X10997000Y18884748D01*
X10997000Y18545252D01*
X10997946Y18540494D01*
X10997947Y18540489D01*
X11006730Y18496334D01*
X11008633Y18486769D01*
X11014050Y18478662D01*
X11014051Y18478660D01*
X11052948Y18420448D01*
X11050450Y18418780D01*
X11066706Y18390623D01*
X11066706Y18339377D01*
X11050450Y18311221D01*
X11052948Y18309552D01*
X11014051Y18251341D01*
X11014049Y18251337D01*
X11008633Y18243231D01*
X11006731Y18233670D01*
X11006730Y18233667D01*
X10997947Y18189512D01*
X10997946Y18189506D01*
X10997000Y18184748D01*
X10997000Y17845252D01*
X10997946Y17840494D01*
X10997947Y17840489D01*
X11006403Y17797980D01*
X11008633Y17786769D01*
X11014050Y17778662D01*
X11014051Y17778660D01*
X11036541Y17745002D01*
X11053226Y17690000D01*
X11036541Y17634998D01*
X11014051Y17601341D01*
X11014049Y17601337D01*
X11008633Y17593231D01*
X11006731Y17583670D01*
X11006730Y17583667D01*
X10997947Y17539512D01*
X10997946Y17539506D01*
X10997000Y17534748D01*
X10997000Y17195252D01*
X10997946Y17190494D01*
X10997947Y17190489D01*
X11006730Y17146334D01*
X11008633Y17136769D01*
X11014050Y17128662D01*
X11014051Y17128660D01*
X11044112Y17083672D01*
X11052948Y17070448D01*
X11080168Y17052260D01*
X11090502Y17045355D01*
X11122810Y17009708D01*
X11134500Y16963040D01*
X11134500Y16603743D01*
X11117815Y16548742D01*
X11073386Y16512279D01*
X11016186Y16506645D01*
X10965496Y16533739D01*
X10807035Y16692200D01*
X10798497Y16701937D01*
X10794716Y16706865D01*
X10778282Y16728282D01*
X10712715Y16778593D01*
X10657989Y16820586D01*
X10657988Y16820587D01*
X10652841Y16824536D01*
X10646847Y16827019D01*
X10646845Y16827020D01*
X10512759Y16882560D01*
X10512758Y16882561D01*
X10506762Y16885044D01*
X10500331Y16885891D01*
X10500326Y16885892D01*
X10389361Y16900500D01*
X10356434Y16904835D01*
X10350000Y16905682D01*
X10317073Y16901347D01*
X10304151Y16900500D01*
X10155417Y16900500D01*
X10104521Y16914585D01*
X10068107Y16952832D01*
X10056536Y17004358D01*
X10073102Y17054502D01*
X10094326Y17086266D01*
X10111367Y17111769D01*
X10123000Y17170252D01*
X10123000Y17509748D01*
X10111367Y17568231D01*
X10067052Y17634552D01*
X10056105Y17641867D01*
X10008840Y17673449D01*
X10008838Y17673450D01*
X10000731Y17678867D01*
X9991167Y17680770D01*
X9991166Y17680770D01*
X9947011Y17689553D01*
X9947006Y17689554D01*
X9942248Y17690500D01*
X9427752Y17690500D01*
X9422989Y17689553D01*
X9422983Y17689552D01*
X9391419Y17683274D01*
X9343368Y17685635D01*
X9302103Y17710368D01*
X8542010Y18470461D01*
X8517596Y18510695D01*
X8514518Y18557656D01*
X8533472Y18600732D01*
X8608713Y18698788D01*
X8669221Y18844867D01*
X8689859Y19001629D01*
X8669221Y19158391D01*
X8608713Y19304470D01*
X8512459Y19429911D01*
X8501346Y19438438D01*
X8392166Y19522215D01*
X8392165Y19522216D01*
X8387018Y19526165D01*
X8381024Y19528648D01*
X8381022Y19528649D01*
X8246936Y19584189D01*
X8246935Y19584190D01*
X8240939Y19586673D01*
X8234508Y19587520D01*
X8234503Y19587521D01*
X8090611Y19606464D01*
X8084177Y19607311D01*
X8077743Y19606464D01*
X7933850Y19587521D01*
X7933843Y19587520D01*
X7927415Y19586673D01*
X7921425Y19584193D01*
X7921414Y19584189D01*
X7837385Y19549382D01*
X7789796Y19542323D01*
X7744498Y19558531D01*
X7712190Y19594178D01*
X7700500Y19640846D01*
X7700500Y20610257D01*
X7708036Y20648143D01*
X7729496Y20680260D01*
X8342197Y21292963D01*
X8351924Y21301495D01*
X8378282Y21321718D01*
X8398505Y21348076D01*
X8407028Y21357795D01*
X9092205Y22042972D01*
X9101924Y22051495D01*
X9128282Y22071718D01*
X9224536Y22197159D01*
X9285044Y22343238D01*
X9305682Y22500000D01*
X9285044Y22656762D01*
X9224536Y22802841D01*
X9155930Y22892250D01*
X72063109Y22892250D01*
X72063150Y22892151D01*
X72063267Y22891867D01*
X72063650Y22891709D01*
X72063749Y22891750D01*
X74113551Y22891750D01*
X74113650Y22891709D01*
X74114033Y22891867D01*
X74114150Y22892151D01*
X74114191Y22892250D01*
X74114150Y22892349D01*
X74114150Y24092151D01*
X74114191Y24092250D01*
X74114033Y24092633D01*
X74113749Y24092750D01*
X74113650Y24092791D01*
X74113551Y24092750D01*
X72063749Y24092750D01*
X72063650Y24092791D01*
X72063551Y24092750D01*
X72063267Y24092633D01*
X72063109Y24092250D01*
X72063150Y24092151D01*
X72063150Y22892349D01*
X72063109Y22892250D01*
X9155930Y22892250D01*
X9128282Y22928282D01*
X9002841Y23024536D01*
X8996847Y23027019D01*
X8996845Y23027020D01*
X8960076Y23042250D01*
X58663109Y23042250D01*
X58663150Y23042151D01*
X58663267Y23041867D01*
X58663650Y23041709D01*
X58663749Y23041750D01*
X60713551Y23041750D01*
X60713650Y23041709D01*
X60714033Y23041867D01*
X60714150Y23042151D01*
X60714191Y23042250D01*
X60714150Y23042349D01*
X60714150Y23092250D01*
X62613109Y23092250D01*
X62613150Y23092151D01*
X62613267Y23091867D01*
X62613650Y23091709D01*
X62613749Y23091750D01*
X64663551Y23091750D01*
X64663650Y23091709D01*
X64664033Y23091867D01*
X64664150Y23092151D01*
X64664191Y23092250D01*
X64664150Y23092349D01*
X64664150Y24292151D01*
X64664191Y24292250D01*
X64664033Y24292633D01*
X64663749Y24292750D01*
X64663650Y24292791D01*
X64663551Y24292750D01*
X62613749Y24292750D01*
X62613650Y24292791D01*
X62613551Y24292750D01*
X62613267Y24292633D01*
X62613109Y24292250D01*
X62613150Y24292151D01*
X62613150Y23092349D01*
X62613109Y23092250D01*
X60714150Y23092250D01*
X60714150Y24242151D01*
X60714191Y24242250D01*
X60714033Y24242633D01*
X60713749Y24242750D01*
X60713650Y24242791D01*
X60713551Y24242750D01*
X58663749Y24242750D01*
X58663650Y24242791D01*
X58663551Y24242750D01*
X58663267Y24242633D01*
X58663109Y24242250D01*
X58663150Y24242151D01*
X58663150Y23042349D01*
X58663109Y23042250D01*
X8960076Y23042250D01*
X8862759Y23082560D01*
X8862758Y23082561D01*
X8856762Y23085044D01*
X8850331Y23085891D01*
X8850326Y23085892D01*
X8706434Y23104835D01*
X8700000Y23105682D01*
X8693566Y23104835D01*
X8549673Y23085892D01*
X8549666Y23085891D01*
X8543238Y23085044D01*
X8537243Y23082561D01*
X8537240Y23082560D01*
X8403154Y23027020D01*
X8403149Y23027018D01*
X8397159Y23024536D01*
X8392015Y23020589D01*
X8392010Y23020586D01*
X8276865Y22932232D01*
X8276862Y22932230D01*
X8271718Y22928282D01*
X8267773Y22923142D01*
X8267767Y22923135D01*
X8251498Y22901933D01*
X8242962Y22892199D01*
X7557801Y22207038D01*
X7548067Y22198502D01*
X7526869Y22182236D01*
X7526863Y22182231D01*
X7521718Y22178282D01*
X7517770Y22173138D01*
X7517761Y22173128D01*
X7501498Y22151933D01*
X7492961Y22142197D01*
X6707801Y21357038D01*
X6698067Y21348502D01*
X6676869Y21332236D01*
X6676863Y21332231D01*
X6671718Y21328282D01*
X6667770Y21323138D01*
X6667767Y21323134D01*
X6647550Y21296785D01*
X6647549Y21296785D01*
X6579414Y21207991D01*
X6579408Y21207982D01*
X6575464Y21202841D01*
X6572983Y21196852D01*
X6572981Y21196848D01*
X6517440Y21062760D01*
X6514956Y21056762D01*
X6514109Y21050334D01*
X6514108Y21050327D01*
X6495165Y20906434D01*
X6494318Y20900000D01*
X6495165Y20893567D01*
X6498653Y20867073D01*
X6499500Y20854151D01*
X6499500Y16999500D01*
X6486237Y16950000D01*
X6450000Y16913763D01*
X6400500Y16900500D01*
X5745349Y16900500D01*
X5732427Y16901347D01*
X5699500Y16905682D01*
X5693066Y16904835D01*
X5660139Y16900500D01*
X5549173Y16885892D01*
X5549166Y16885891D01*
X5542738Y16885044D01*
X5536743Y16882561D01*
X5536740Y16882560D01*
X5402654Y16827020D01*
X5402649Y16827018D01*
X5396659Y16824536D01*
X5391515Y16820589D01*
X5391510Y16820586D01*
X5276365Y16732232D01*
X5276362Y16732230D01*
X5271218Y16728282D01*
X5267269Y16723137D01*
X5267266Y16723133D01*
X5251705Y16702855D01*
X5240398Y16691545D01*
X5240710Y16691233D01*
X5236127Y16686652D01*
X5230978Y16682699D01*
X5227027Y16677552D01*
X5225454Y16675978D01*
X5219847Y16669584D01*
X3107801Y14557538D01*
X3098067Y14549002D01*
X3076869Y14532736D01*
X3076863Y14532731D01*
X3071718Y14528782D01*
X3067770Y14523638D01*
X3067767Y14523634D01*
X3003387Y14439732D01*
X2968631Y14411210D01*
X2924845Y14401000D01*
X-121802Y14401000D01*
X-127075Y14401366D01*
X-132765Y14403273D01*
X-141929Y14402850D01*
X-141933Y14402850D01*
X-179642Y14401106D01*
X-184214Y14401000D01*
X-202844Y14401000D01*
X-207344Y14400160D01*
X-211899Y14399737D01*
X-211917Y14399929D01*
X-216579Y14399399D01*
X-235828Y14398509D01*
X-235830Y14398509D01*
X-244992Y14398085D01*
X-253378Y14394383D01*
X-253385Y14394381D01*
X-253989Y14394113D01*
X-275773Y14387368D01*
X-276415Y14387249D01*
X-276425Y14387246D01*
X-285433Y14385561D01*
X-293229Y14380735D01*
X-293230Y14380734D01*
X-309619Y14370587D01*
X-321737Y14364200D01*
X-339374Y14356412D01*
X-339377Y14356411D01*
X-347765Y14352706D01*
X-354248Y14346224D01*
X-354256Y14346218D01*
X-354722Y14345751D01*
X-372587Y14331601D01*
X-373148Y14331254D01*
X-373157Y14331246D01*
X-380952Y14326419D01*
X-386476Y14319105D01*
X-386483Y14319098D01*
X-398094Y14303722D01*
X-407091Y14293382D01*
X-506292Y14194181D01*
X-544473Y14170439D01*
X-589218Y14166032D01*
X-694066Y14179835D01*
X-700500Y14180682D01*
X-706934Y14179835D01*
X-850827Y14160892D01*
X-850834Y14160891D01*
X-857262Y14160044D01*
X-863252Y14157564D01*
X-863263Y14157560D01*
X-962615Y14116406D01*
X-1010204Y14109347D01*
X-1055502Y14125555D01*
X-1087810Y14161202D01*
X-1099500Y14207870D01*
X-1099500Y16201678D01*
X-1091964Y16239564D01*
X-1070504Y16271682D01*
X1628317Y18970504D01*
X1660435Y18991964D01*
X1698321Y18999500D01*
X3582228Y18999500D01*
X3614050Y18994246D01*
X3636233Y18982389D01*
X3636390Y18982659D01*
X3642012Y18979413D01*
X3647159Y18975464D01*
X3793238Y18914956D01*
X3950000Y18894318D01*
X4106762Y18914956D01*
X4252841Y18975464D01*
X4257988Y18979414D01*
X4263610Y18982659D01*
X4263766Y18982389D01*
X4285950Y18994246D01*
X4317772Y18999500D01*
X4482228Y18999500D01*
X4514050Y18994246D01*
X4536233Y18982389D01*
X4536390Y18982659D01*
X4542012Y18979413D01*
X4547159Y18975464D01*
X4693238Y18914956D01*
X4850000Y18894318D01*
X5006762Y18914956D01*
X5152841Y18975464D01*
X5278282Y19071718D01*
X5374536Y19197159D01*
X5435044Y19343238D01*
X5455682Y19500000D01*
X5435044Y19656762D01*
X5374536Y19802841D01*
X5278282Y19928282D01*
X5263593Y19939553D01*
X5157989Y20020586D01*
X5157988Y20020587D01*
X5152841Y20024536D01*
X5146847Y20027019D01*
X5146845Y20027020D01*
X5012759Y20082560D01*
X5012758Y20082561D01*
X5006762Y20085044D01*
X5000331Y20085891D01*
X5000326Y20085892D01*
X4856434Y20104835D01*
X4850000Y20105682D01*
X4843566Y20104835D01*
X4699673Y20085892D01*
X4699666Y20085891D01*
X4693238Y20085044D01*
X4687243Y20082561D01*
X4687240Y20082560D01*
X4553152Y20027019D01*
X4553148Y20027017D01*
X4547159Y20024536D01*
X4542014Y20020589D01*
X4536390Y20017341D01*
X4536233Y20017612D01*
X4514050Y20005754D01*
X4482228Y20000500D01*
X4317772Y20000500D01*
X4285950Y20005754D01*
X4263766Y20017612D01*
X4263610Y20017341D01*
X4257986Y20020588D01*
X4252841Y20024536D01*
X4246844Y20027020D01*
X4112759Y20082560D01*
X4112758Y20082561D01*
X4106762Y20085044D01*
X4100331Y20085891D01*
X4100326Y20085892D01*
X3956434Y20104835D01*
X3950000Y20105682D01*
X3943566Y20104835D01*
X3799673Y20085892D01*
X3799666Y20085891D01*
X3793238Y20085044D01*
X3787243Y20082561D01*
X3787240Y20082560D01*
X3653152Y20027019D01*
X3653148Y20027017D01*
X3647159Y20024536D01*
X3642014Y20020589D01*
X3636390Y20017341D01*
X3636233Y20017612D01*
X3614050Y20005754D01*
X3582228Y20000500D01*
X1514454Y20000500D01*
X1493410Y20002763D01*
X1493266Y20002795D01*
X1492994Y20002854D01*
X1492989Y20002855D01*
X1486073Y20004359D01*
X1479010Y20003854D01*
X1479008Y20003854D01*
X1435644Y20000752D01*
X1428581Y20000500D01*
X1414201Y20000500D01*
X1410715Y19999999D01*
X1410702Y19999998D01*
X1399959Y19998453D01*
X1392938Y19997698D01*
X1349575Y19994596D01*
X1349574Y19994596D01*
X1342517Y19994091D01*
X1335891Y19991621D01*
X1335877Y19991617D01*
X1335466Y19991463D01*
X1314989Y19986237D01*
X1314555Y19986175D01*
X1314544Y19986172D01*
X1307543Y19985165D01*
X1301110Y19982228D01*
X1301102Y19982225D01*
X1261565Y19964169D01*
X1255040Y19961466D01*
X1214304Y19946272D01*
X1214296Y19946269D01*
X1207669Y19943796D01*
X1202004Y19939556D01*
X1201999Y19939553D01*
X1201646Y19939288D01*
X1183461Y19928499D01*
X1183070Y19928321D01*
X1183063Y19928317D01*
X1176627Y19925377D01*
X1171278Y19920743D01*
X1171276Y19920741D01*
X1138421Y19892273D01*
X1132927Y19887845D01*
X1124230Y19881334D01*
X1124225Y19881331D01*
X1121407Y19879220D01*
X1118915Y19876729D01*
X1118909Y19876723D01*
X1111239Y19869054D01*
X1106075Y19864247D01*
X1073207Y19835766D01*
X1073199Y19835758D01*
X1067857Y19831128D01*
X1064034Y19825182D01*
X1064027Y19825172D01*
X1063790Y19824802D01*
X1050516Y19808331D01*
X-1908334Y16849482D01*
X-1924802Y16836210D01*
X-1925167Y16835976D01*
X-1925175Y16835970D01*
X-1931128Y16832143D01*
X-1935761Y16826797D01*
X-1935766Y16826792D01*
X-1964239Y16793933D01*
X-1969047Y16788769D01*
X-1976718Y16781098D01*
X-1976730Y16781085D01*
X-1979221Y16778593D01*
X-1981330Y16775777D01*
X-1981343Y16775761D01*
X-1987851Y16767066D01*
X-1992282Y16761568D01*
X-2020741Y16728724D01*
X-2020743Y16728722D01*
X-2025377Y16723373D01*
X-2028317Y16716937D01*
X-2028321Y16716930D01*
X-2028499Y16716539D01*
X-2039288Y16698354D01*
X-2039553Y16698001D01*
X-2039556Y16697996D01*
X-2043796Y16692331D01*
X-2046269Y16685704D01*
X-2046272Y16685696D01*
X-2061466Y16644960D01*
X-2064169Y16638435D01*
X-2082225Y16598898D01*
X-2082228Y16598890D01*
X-2085165Y16592457D01*
X-2086172Y16585456D01*
X-2086175Y16585445D01*
X-2086237Y16585011D01*
X-2091463Y16564534D01*
X-2091617Y16564123D01*
X-2091621Y16564109D01*
X-2094091Y16557483D01*
X-2094596Y16550426D01*
X-2094596Y16550425D01*
X-2097698Y16507062D01*
X-2098453Y16500041D01*
X-2099998Y16489298D01*
X-2099999Y16489285D01*
X-2100500Y16485799D01*
X-2100500Y16482265D01*
X-2100500Y16471419D01*
X-2100752Y16464356D01*
X-2103332Y16428282D01*
X-2104359Y16413927D01*
X-2102855Y16407011D01*
X-2102854Y16407006D01*
X-2102763Y16406592D01*
X-2100500Y16385546D01*
X-2100500Y5014454D01*
X-2102763Y4993408D01*
X-2102854Y4992995D01*
X-2102855Y4992990D01*
X-2104359Y4986073D01*
X-5911250Y4986073D01*
X-5911250Y12042739D01*
X-5897985Y12092242D01*
X-5861743Y12128479D01*
X-5812240Y12141739D01*
X-3324350Y12141450D01*
X-3324229Y12141450D01*
X-3323850Y12141400D01*
X-3323850Y12141350D01*
X-3234419Y12141345D01*
X-3059463Y12178524D01*
X-2896061Y12251266D01*
X-2751354Y12356394D01*
X-2631668Y12489312D01*
X-2542234Y12644209D01*
X-2486960Y12814317D01*
X-2468263Y12992200D01*
X-2486960Y13170083D01*
X-2542234Y13340191D01*
X-2631668Y13495088D01*
X-2641776Y13506313D01*
X-2704493Y13575964D01*
X-2751354Y13628006D01*
X-2755547Y13631052D01*
X-2755550Y13631055D01*
X-2855569Y13703717D01*
X-2896061Y13733134D01*
X-2939655Y13752541D01*
X-3054726Y13803768D01*
X-3054733Y13803771D01*
X-3059463Y13805876D01*
X-3115024Y13817683D01*
X-3229350Y13841978D01*
X-3229352Y13841979D01*
X-3234419Y13843055D01*
X-3239601Y13843055D01*
X-3239603Y13843055D01*
X-3323850Y13843050D01*
X-5812250Y13843050D01*
X-5861750Y13856313D01*
X-5897987Y13892550D01*
X-5911250Y13942050D01*
X-5911250Y17570350D01*
X-5897987Y17619850D01*
X-5861750Y17656087D01*
X-5812250Y17669350D01*
X-3324348Y17669351D01*
X-3324348Y17669349D01*
X-3324347Y17669348D01*
X-3324073Y17669350D01*
X-3323847Y17669323D01*
X-3323847Y17669350D01*
X-3183818Y17670072D01*
X-2905967Y17705206D01*
X-2634349Y17773463D01*
X-2372898Y17873855D01*
X-2125400Y18004928D01*
X-1895440Y18164783D01*
X-1686349Y18351106D01*
X-1501154Y18561197D01*
X-1342539Y18792014D01*
X-1212800Y19040214D01*
X-1113817Y19302202D01*
X-1047023Y19574183D01*
X-1013385Y19852218D01*
X-1013417Y19992250D01*
X-1013417Y19992750D01*
X-1013417Y22750000D01*
X546855Y22750000D01*
X547577Y22744054D01*
X566637Y22587075D01*
X566638Y22587068D01*
X567360Y22581128D01*
X569482Y22575532D01*
X569483Y22575529D01*
X625560Y22427665D01*
X627682Y22422070D01*
X631079Y22417149D01*
X631081Y22417145D01*
X697322Y22321180D01*
X724317Y22282071D01*
X851648Y22169266D01*
X1002275Y22090210D01*
X1167444Y22049500D01*
X1331568Y22049500D01*
X1337556Y22049500D01*
X1502725Y22090210D01*
X1653352Y22169266D01*
X1780683Y22282071D01*
X1806025Y22318786D01*
X1841493Y22350206D01*
X1887500Y22361546D01*
X1933507Y22350206D01*
X1968974Y22318786D01*
X1994317Y22282071D01*
X2121648Y22169266D01*
X2272275Y22090210D01*
X2437444Y22049500D01*
X2601568Y22049500D01*
X2607556Y22049500D01*
X2772725Y22090210D01*
X2923352Y22169266D01*
X2953541Y22196012D01*
X2994766Y22217848D01*
X3041420Y22218379D01*
X3083136Y22197483D01*
X3102475Y22170996D01*
X3103633Y22171769D01*
X3147948Y22105448D01*
X3214269Y22061133D01*
X3272752Y22049500D01*
X4307390Y22049500D01*
X4312248Y22049500D01*
X4370731Y22061133D01*
X4437052Y22105448D01*
X4481367Y22171769D01*
X4493000Y22230252D01*
X4493000Y23269748D01*
X4481367Y23328231D01*
X4437052Y23394552D01*
X4428941Y23399972D01*
X4378840Y23433449D01*
X4378838Y23433450D01*
X4370731Y23438867D01*
X4361167Y23440770D01*
X4361166Y23440770D01*
X4317011Y23449553D01*
X4317006Y23449554D01*
X4312248Y23450500D01*
X3272752Y23450500D01*
X3267994Y23449554D01*
X3267988Y23449553D01*
X3223833Y23440770D01*
X3223830Y23440769D01*
X3214269Y23438867D01*
X3206163Y23433451D01*
X3206159Y23433449D01*
X3156058Y23399972D01*
X3156055Y23399970D01*
X3147948Y23394552D01*
X3142530Y23386445D01*
X3142528Y23386442D01*
X3103633Y23328231D01*
X3102475Y23329005D01*
X3083132Y23302515D01*
X3041418Y23281621D01*
X2994766Y23282153D01*
X2953539Y23303991D01*
X2923352Y23330734D01*
X2912669Y23336341D01*
X2778028Y23407007D01*
X2778026Y23407008D01*
X2772725Y23409790D01*
X2766909Y23411224D01*
X2766908Y23411224D01*
X2613371Y23449067D01*
X2613368Y23449068D01*
X2607556Y23450500D01*
X2437444Y23450500D01*
X2431631Y23449068D01*
X2431628Y23449067D01*
X2278091Y23411224D01*
X2278087Y23411223D01*
X2272275Y23409790D01*
X2266976Y23407010D01*
X2266971Y23407007D01*
X2126951Y23333518D01*
X2126946Y23333515D01*
X2121648Y23330734D01*
X2117167Y23326766D01*
X2117165Y23326763D01*
X1998799Y23221901D01*
X1998793Y23221895D01*
X1994317Y23217929D01*
X1990917Y23213003D01*
X1968975Y23181215D01*
X1933507Y23149794D01*
X1887500Y23138455D01*
X1841493Y23149794D01*
X1806025Y23181215D01*
X1780683Y23217929D01*
X1653352Y23330734D01*
X1642669Y23336341D01*
X1508028Y23407007D01*
X1508026Y23407008D01*
X1502725Y23409790D01*
X1496909Y23411224D01*
X1496908Y23411224D01*
X1343371Y23449067D01*
X1343368Y23449068D01*
X1337556Y23450500D01*
X1167444Y23450500D01*
X1161631Y23449068D01*
X1161628Y23449067D01*
X1008091Y23411224D01*
X1008087Y23411223D01*
X1002275Y23409790D01*
X996976Y23407010D01*
X996971Y23407007D01*
X856951Y23333518D01*
X856946Y23333515D01*
X851648Y23330734D01*
X847167Y23326766D01*
X847165Y23326763D01*
X728799Y23221901D01*
X728793Y23221895D01*
X724317Y23217929D01*
X720917Y23213004D01*
X720914Y23213000D01*
X631081Y23082856D01*
X631077Y23082849D01*
X627682Y23077930D01*
X625561Y23072340D01*
X625560Y23072336D01*
X569483Y22924472D01*
X569481Y22924467D01*
X567360Y22918872D01*
X566639Y22912935D01*
X566637Y22912926D01*
X553896Y22807990D01*
X546855Y22750000D01*
X-1013417Y22750000D01*
X-1013417Y24192750D01*
X-1000154Y24242250D01*
X-963917Y24278487D01*
X-914417Y24291750D01*
X19173651Y24291750D01*
X19173750Y24291709D01*
X19174133Y24291867D01*
X19174250Y24292151D01*
X19174291Y24292250D01*
X19174250Y24292349D01*
X19174250Y26095850D01*
X19187513Y26145350D01*
X19223750Y26181587D01*
X19273250Y26194850D01*
X65774482Y26194850D01*
X65810746Y26187969D01*
G37*
%TD.AperFunction*%
%TD*%
%TA.AperFunction,NonConductor*%
G36*
X7859160Y18296690D02*
G01*
X7880949Y18280236D01*
X7891293Y18271236D01*
X8997396Y17165133D01*
X9000867Y17161144D01*
X9003542Y17155772D01*
X9010318Y17149595D01*
X9038224Y17124155D01*
X9041532Y17120997D01*
X9054703Y17107826D01*
X9058473Y17105243D01*
X9061996Y17102318D01*
X9061862Y17102157D01*
X9065539Y17099254D01*
X9086567Y17080084D01*
X9087833Y17079594D01*
X9118788Y17046873D01*
X9130841Y16997671D01*
X9116978Y16948948D01*
X9080829Y16913460D01*
X9031858Y16900500D01*
X7799500Y16900500D01*
X7750000Y16913763D01*
X7713763Y16950000D01*
X7700500Y16999500D01*
X7700500Y18217686D01*
X7715328Y18269803D01*
X7755372Y18306307D01*
X7808634Y18316264D01*
X7859160Y18296690D01*
G37*
%TD.AperFunction*%
%TA.AperFunction,Conductor*%
%TO.N,+6V*%
G36*
X82050500Y12486737D02*
G01*
X82086737Y12450500D01*
X82100000Y12401000D01*
X82100000Y4122450D01*
X82086737Y4072950D01*
X82050500Y4036713D01*
X82001000Y4023450D01*
X78492550Y4023450D01*
X78363599Y4023453D01*
X78363597Y4023453D01*
X78360611Y4023453D01*
X78357651Y4023094D01*
X78357640Y4023093D01*
X78101628Y3992012D01*
X78101624Y3992012D01*
X78098656Y3991651D01*
X78095770Y3990940D01*
X78095755Y3990937D01*
X77845348Y3929221D01*
X77845339Y3929219D01*
X77842445Y3928505D01*
X77839657Y3927448D01*
X77839645Y3927444D01*
X77598515Y3835999D01*
X77598509Y3835997D01*
X77595713Y3834936D01*
X77593068Y3833549D01*
X77593055Y3833542D01*
X77364703Y3713695D01*
X77364698Y3713693D01*
X77362059Y3712307D01*
X77359614Y3710620D01*
X77359605Y3710614D01*
X77147346Y3564104D01*
X77147341Y3564101D01*
X77144891Y3562409D01*
X77142668Y3560440D01*
X77142657Y3560431D01*
X76949619Y3389414D01*
X76949610Y3389406D01*
X76947375Y3387425D01*
X76945394Y3385190D01*
X76945386Y3385181D01*
X76774369Y3192143D01*
X76774360Y3192132D01*
X76772391Y3189909D01*
X76770699Y3187459D01*
X76770696Y3187454D01*
X76624186Y2975195D01*
X76624180Y2975186D01*
X76622493Y2972741D01*
X76621107Y2970102D01*
X76621105Y2970097D01*
X76501258Y2741745D01*
X76501251Y2741732D01*
X76499864Y2739087D01*
X76498803Y2736291D01*
X76498801Y2736285D01*
X76407356Y2495155D01*
X76407352Y2495143D01*
X76406295Y2492355D01*
X76405581Y2489461D01*
X76405579Y2489452D01*
X76343863Y2239045D01*
X76343860Y2239030D01*
X76343149Y2236144D01*
X76342788Y2233176D01*
X76342788Y2233172D01*
X76311707Y1977160D01*
X76311706Y1977149D01*
X76311347Y1974189D01*
X76311347Y1971203D01*
X76311347Y1971201D01*
X76311350Y1842250D01*
X76311350Y893050D01*
X76298087Y843550D01*
X76261850Y807313D01*
X76212350Y794050D01*
X62556049Y794050D01*
X62555950Y794091D01*
X62555851Y794050D01*
X62555567Y793933D01*
X62555409Y793550D01*
X62555450Y793451D01*
X62555450Y783991D01*
X62555450Y-1515850D01*
X62542187Y-1565350D01*
X62505950Y-1601587D01*
X62456450Y-1614850D01*
X8799000Y-1614850D01*
X8749500Y-1601587D01*
X8713263Y-1565350D01*
X8700000Y-1515850D01*
X8700000Y901000D01*
X8713263Y950500D01*
X8749500Y986737D01*
X8799000Y1000000D01*
X56189895Y1000000D01*
X56200000Y1000000D01*
X58762934Y3713695D01*
X59570700Y4568976D01*
X59603486Y4591914D01*
X59642674Y4600000D01*
X72386967Y4600000D01*
X72400000Y4600000D01*
X72400000Y12401000D01*
X72413263Y12450500D01*
X72449500Y12486737D01*
X72499000Y12500000D01*
X82001000Y12500000D01*
X82050500Y12486737D01*
G37*
%TD.AperFunction*%
%TD*%
M02*
